STARTFONT 2.1
COMMENT
COMMENT Converted from OpenType font "Manrope-ExtraLight.otf" by "otf2bdf 3.0".
COMMENT
FONT -FreeType-Manrope ExtraLight-Medium-R-Normal--86-620-100-100-P-368-ISO10646-1
SIZE 62 100 100
FONTBOUNDINGBOX 80 106 -2 -22
STARTPROPERTIES 19
FOUNDRY "FreeType"
FAMILY_NAME "Manrope ExtraLight"
WEIGHT_NAME "Medium"
SLANT "R"
SETWIDTH_NAME "Normal"
ADD_STYLE_NAME ""
PIXEL_SIZE 86
POINT_SIZE 620
RESOLUTION_X 100
RESOLUTION_Y 100
SPACING "P"
AVERAGE_WIDTH 368
CHARSET_REGISTRY "ISO10646"
CHARSET_ENCODING "1"
FONT_ASCENT 91
FONT_DESCENT 25
COPYRIGHT "Copyright 2019-2021 The Manrope Project Authors (https://github.com/sharanda/manrope)"
_OTF_FONTFILE "Manrope-ExtraLight.otf"
_OTF_PSNAME "Manrope-ExtraLight"
ENDPROPERTIES
CHARS 191
STARTCHAR 0020
ENCODING 32
SWIDTH 197 0
DWIDTH 17 0
BBX 0 0 0 0
BITMAP
ENDCHAR
STARTCHAR 0021
ENCODING 33
SWIDTH 278 0
DWIDTH 24 0
BBX 4 62 10 0
BITMAP
F0
F0
F0
F0
F0
F0
F0
F0
F0
F0
F0
F0
F0
F0
F0
F0
F0
F0
F0
F0
F0
F0
F0
F0
F0
F0
F0
F0
F0
F0
F0
F0
F0
F0
F0
F0
F0
F0
F0
F0
F0
F0
F0
F0
F0
F0
F0
00
00
00
00
00
00
00
00
00
F0
F0
F0
F0
F0
F0
ENDCHAR
STARTCHAR 0022
ENCODING 34
SWIDTH 336 0
DWIDTH 29 0
BBX 16 16 5 46
BITMAP
F00F
F00F
F00F
F00F
F00F
F00F
F00F
F00F
F00F
F00F
F00F
F00F
F00F
F00F
F00F
F00F
ENDCHAR
STARTCHAR 0023
ENCODING 35
SWIDTH 917 0
DWIDTH 79 0
BBX 68 62 5 0
BITMAP
00000003C0001E0000
00000003C0003C0000
0000000380003C0000
0000000780003C0000
000000078000380000
000000078000780000
0000000F0000780000
0000000F0000780000
0000000F0000700000
0000000E0000F00000
0000001E0000F00000
0000001E0000F00000
0000001E0000E00000
0000001C0001E00000
0000003C0001E00000
0000003C0001C00000
0000003C0003C00000
000000380003C00000
03FFFFFFFFFFFFFFF0
03FFFFFFFFFFFFFFF0
03FFFFFFFFFFFFFFF0
03FFFFFFFFFFFFFFF0
000000F00007800000
000000F00007000000
000000E0000F000000
000001E0000F000000
000001E0000F000000
000001E0000E000000
000001C0001E000000
000003C0001E000000
000003C0001C000000
000003C0003C000000
00000380003C000000
00000780003C000000
000007800038000000
000007000078000000
00000F000078000000
00000F000078000000
7FFFFFFFFFFFFFFE00
7FFFFFFFFFFFFFFE00
7FFFFFFFFFFFFFFE00
FFFFFFFFFFFFFFFC00
00001E0001E0000000
00001C0001E0000000
00003C0001E0000000
00003C0001C0000000
00003C0003C0000000
0000780003C0000000
0000780003C0000000
000078000380000000
000070000780000000
0000F0000780000000
0000F0000780000000
0000F0000700000000
0000E0000F00000000
0001E0000F00000000
0001E0000F00000000
0001E0000E00000000
0001C0001E00000000
0003C0001E00000000
0003C0001C00000000
0003C0003C00000000
ENDCHAR
STARTCHAR 0024
ENCODING 36
SWIDTH 557 0
DWIDTH 48 0
BBX 43 78 3 -8
BITMAP
00001E000000
00001E000000
00001E000000
00001E000000
00001E000000
00001E000000
00001E000000
0000FFC00000
000FFFFC0000
003FFFFF0000
00FFFFFFC000
01FE001FE000
03F80003F000
07E00000F800
0FC000007C00
0F8000003E00
1F0000001F00
1E0000000F00
1E0000000780
3C0000000780
3C00000003C0
3C00000003C0
3C00000003C0
3C00000001C0
3C00000001E0
3C0000000100
3C0000000000
1E0000000000
1E0000000000
1F0000000000
0F8000000000
07C000000000
03F000000000
01FC00000000
00FF80000000
003FF8000000
000FFF000000
0001FFE00000
00003FFC0000
000003FF8000
0000007FE000
0000000FF800
00000001FC00
000000007E00
000000001F00
000000000F80
000000000780
0000000003C0
0000000003C0
0000000001C0
0000000001E0
0000000001E0
0000000001E0
0000000001E0
E000000001E0
F000000001E0
F000000001E0
F000000001E0
7800000001C0
7C00000003C0
3C00000003C0
3E0000000780
1F0000000F80
0F8000001F00
07E000003E00
03F80000FC00
01FF0007F800
007FFFFFF000
003FFFFFC000
0007FFFF0000
0000FFF00000
00001E000000
00001E000000
00001E000000
00001E000000
00001E000000
00001E000000
00001E000000
ENDCHAR
STARTCHAR 0025
ENCODING 37
SWIDTH 905 0
DWIDTH 78 0
BBX 68 64 5 -1
BITMAP
000FE0000000000000
007FFC000000000200
01FFFF000000000700
03FFFF800000000F80
07E00FE00000001F00
0F8003F00000003E00
1F0001F00000007C00
3E0000F8000000F800
3C00007C000001F000
7800003C000003E000
7800003C000007C000
7000001E00000F8000
F000001E00001F0000
F000001E00003E0000
F000001E00007C0000
F000000E0000F80000
F000001E0001F00000
F000001E0003E00000
F000001E0007C00000
7800001E000F800000
7800003C001F000000
7C00003C003E000000
3C000078007C000000
1E0000F800F8000000
1F0001F001F0000000
0FC007E003E0000000
07F01FC007C0000000
03FFFF800F80000000
00FFFF001F00000000
003FFC003E00000000
000780007C00000000
00000000F800000000
00000001F000000000
00000003E000180000
00000007C003FFC000
0000000F800FFFF000
0000001F001FFFF800
0000003E003F81FE00
0000007C007C003F00
000000F800F8001F00
000001F001F0000F80
000003E003E00007C0
000007C003C00003C0
00000F8007800001E0
00001F0007800001E0
00003E0007800001E0
00007C0007000000E0
0000F80007000000E0
0001F0000F000000F0
0003E0000F000000E0
0007C00007000000E0
000F800007000000E0
001F000007800001E0
003E000007800001E0
007C000003C00003C0
00F8000003C00003C0
01F0000001E0000780
03E0000001F0000F80
07C0000000FC003F00
0F800000007F00FE00
1F000000003FFFFC00
0E000000000FFFF800
040000000007FFE000
000000000000FF0000
ENDCHAR
STARTCHAR 0026
ENCODING 38
SWIDTH 638 0
DWIDTH 55 0
BBX 50 64 4 -1
BITMAP
00007FC0000000
0007FFFC000000
001FFFFF000000
003FFFFF800000
007F001FE00000
00FC0003E00000
01F00001F00000
03E00000F80000
03C000007C0000
07800000300000
07800000000000
07800000000000
0F000000000000
0F000000000000
0F000000000000
0F000000000000
0F000000000000
0F000000000000
0F000000000000
0F000000000000
07800000000000
07800000000000
03C00000000000
03E00000000000
01E00000000000
00F00000000000
00F80000000000
007C0000000000
003F0000000000
001F8000000000
003FC000000000
00FFE000000000
01FFF000000000
07F0F800000000
0FC07C00000000
0F803E0001E000
1F001F0001E000
3E000F8001E000
3C0007C001E000
7C0003E001E000
780001F801E000
7800007C01E000
7800003E01E000
F000001F01E000
F000000F81E000
F0000007C1E000
F0000003E1E000
F0000001F1E000
F0000000F9E000
780000007DE000
780000001FC000
780000000FC000
7C00000007C000
3C00000007E000
3E0000000FF000
1F0000001FF800
0F8000003F7C00
0FC000007E3E00
07F00001FC1F00
03FE0007F80F80
00FFFFFFE007C0
003FFFFFC00380
000FFFFF000100
0000FFF0000000
ENDCHAR
STARTCHAR 0027
ENCODING 39
SWIDTH 185 0
DWIDTH 16 0
BBX 4 16 5 46
BITMAP
F0
F0
F0
F0
F0
F0
F0
F0
F0
F0
F0
F0
F0
F0
F0
F0
ENDCHAR
STARTCHAR 0028
ENCODING 40
SWIDTH 406 0
DWIDTH 35 0
BBX 19 86 12 -15
BITMAP
0000C0
0001E0
0003E0
0007C0
000780
000F00
001F00
001E00
003C00
007C00
007800
00F000
00F000
01E000
01E000
03C000
03C000
078000
078000
070000
0F0000
0F0000
1E0000
1E0000
1C0000
3C0000
3C0000
3C0000
380000
780000
780000
780000
700000
700000
700000
F00000
F00000
F00000
F00000
F00000
F00000
F00000
F00000
F00000
F00000
F00000
F00000
F00000
F00000
F00000
F00000
700000
700000
780000
780000
780000
380000
3C0000
3C0000
3C0000
1C0000
1E0000
1E0000
0E0000
0F0000
0F0000
078000
078000
078000
03C000
03C000
01E000
01E000
00F000
00F800
007800
003C00
003C00
001E00
000F00
000F80
000780
0003C0
0003E0
0001C0
000080
ENDCHAR
STARTCHAR 0029
ENCODING 41
SWIDTH 406 0
DWIDTH 35 0
BBX 19 86 4 -15
BITMAP
600000
F00000
F80000
7C0000
3C0000
1E0000
0F0000
0F0000
078000
03C000
03C000
01E000
01E000
00F000
00F000
007800
007800
003C00
003C00
001E00
001E00
000E00
000F00
000F00
000700
000780
000780
000380
000380
0003C0
0003C0
0003C0
0001C0
0001C0
0001C0
0001E0
0001E0
0001E0
0001E0
0001E0
0000E0
0000E0
0000E0
0000E0
0000E0
0000E0
0001E0
0001E0
0001E0
0001E0
0001E0
0001C0
0001C0
0001C0
0003C0
0003C0
0003C0
000380
000780
000780
000700
000F00
000F00
000F00
001E00
001E00
001C00
003C00
003C00
007800
007800
00F000
00F000
01E000
03E000
03C000
078000
078000
0F0000
1F0000
3E0000
3C0000
780000
F80000
700000
200000
ENDCHAR
STARTCHAR 002A
ENCODING 42
SWIDTH 418 0
DWIDTH 36 0
BBX 28 27 3 35
BITMAP
000F0000
000F0000
000F0000
000F0000
000F0000
000F0000
000F0000
000F0000
400F0060
F80F03E0
FF0F1FF0
FFFFFFF0
1FFFFF80
03FFF800
007FC000
003F8000
003FC000
007BC000
00F9E000
01F1F000
01E0F800
03E07800
07C03C00
07803E00
0F001E00
07000C00
02000800
ENDCHAR
STARTCHAR 002B
ENCODING 43
SWIDTH 580 0
DWIDTH 50 0
BBX 40 40 5 11
BITMAP
00003C0000
00003C0000
00003C0000
00003C0000
00003C0000
00003C0000
00003C0000
00003C0000
00003C0000
00003C0000
00003C0000
00003C0000
00003C0000
00003C0000
00003C0000
00003C0000
00003C0000
00003C0000
FFFFFFFFFF
FFFFFFFFFF
FFFFFFFFFF
FFFFFFFFFF
00003C0000
00003C0000
00003C0000
00003C0000
00003C0000
00003C0000
00003C0000
00003C0000
00003C0000
00003C0000
00003C0000
00003C0000
00003C0000
00003C0000
00003C0000
00003C0000
00003C0000
00003C0000
ENDCHAR
STARTCHAR 002C
ENCODING 44
SWIDTH 243 0
DWIDTH 21 0
BBX 5 16 5 -9
BITMAP
F8
F8
F8
F8
F8
F8
F8
F8
18
18
18
18
18
38
F0
E0
ENDCHAR
STARTCHAR 002D
ENCODING 45
SWIDTH 418 0
DWIDTH 36 0
BBX 26 4 5 25
BITMAP
FFFFFFC0
FFFFFFC0
FFFFFFC0
FFFFFFC0
ENDCHAR
STARTCHAR 002E
ENCODING 46
SWIDTH 220 0
DWIDTH 19 0
BBX 5 5 7 0
BITMAP
F8
F8
F8
F8
F8
ENDCHAR
STARTCHAR 002F
ENCODING 47
SWIDTH 360 0
DWIDTH 31 0
BBX 20 62 5 0
BITMAP
000070
0000F0
0000F0
0000F0
0001E0
0001E0
0001E0
0001E0
0003C0
0003C0
0003C0
0003C0
000780
000780
000780
000700
000F00
000F00
000F00
001E00
001E00
001E00
001E00
003C00
003C00
003C00
003C00
007800
007800
007800
007000
00F000
00F000
00F000
01E000
01E000
01E000
01E000
03C000
03C000
03C000
03C000
078000
078000
078000
070000
0F0000
0F0000
0F0000
1E0000
1E0000
1E0000
1E0000
3C0000
3C0000
3C0000
3C0000
780000
780000
780000
700000
F00000
ENDCHAR
STARTCHAR 0030
ENCODING 48
SWIDTH 580 0
DWIDTH 50 0
BBX 38 64 6 -1
BITMAP
0001FE0000
001FFFC000
007FFFF000
00FFFFFC00
01FC00FE00
03F0003F00
07C0000F80
0F800007C0
1F000003E0
3E000001E0
3C000000F0
7C000000F0
7800000078
7800000078
F000000078
F000000038
F00000003C
F00000003C
F00000003C
F00000003C
F00000003C
F00000003C
F00000003C
F00000003C
F00000003C
F00000003C
F00000003C
F00000003C
F00000003C
F00000003C
F00000003C
F00000003C
F00000003C
F00000003C
F00000003C
F00000003C
F00000003C
F00000003C
F00000003C
F00000003C
F00000003C
F00000003C
F00000003C
F00000003C
F00000003C
F00000003C
F00000003C
F00000003C
F000000038
F000000078
7800000078
7800000078
78000000F0
3C000000F0
3E000001E0
1F000003E0
0F800007C0
07C0000F80
03F0003F00
01FC00FE00
00FFFFFC00
003FFFF000
001FFFC000
0003FE0000
ENDCHAR
STARTCHAR 0031
ENCODING 49
SWIDTH 360 0
DWIDTH 31 0
BBX 15 62 5 0
BITMAP
001E
007E
00FE
03FE
0FEE
1FCE
7F0E
FC0E
F80E
E00E
800E
000E
000E
000E
000E
000E
000E
000E
000E
000E
000E
000E
000E
000E
000E
000E
000E
000E
000E
000E
000E
000E
000E
000E
000E
000E
000E
000E
000E
000E
000E
000E
000E
000E
000E
000E
000E
000E
000E
000E
000E
000E
000E
000E
000E
000E
000E
000E
000E
000E
000E
000E
ENDCHAR
STARTCHAR 0032
ENCODING 50
SWIDTH 557 0
DWIDTH 48 0
BBX 39 63 4 0
BITMAP
0000FF0000
0007FFF000
001FFFFC00
007FFFFE00
00FE007F00
01F8001FC0
03E00007C0
07C00003E0
0F800001F0
1F000000F8
1E00000078
3E0000003C
3C0000003C
3C0000001C
780000001E
780000001E
780000001E
780000000E
780000000E
000000000E
000000000E
000000000E
000000001E
000000001E
000000001E
000000001E
000000003C
000000003C
0000000078
0000000078
00000000F0
00000001F0
00000003E0
00000007C0
0000000F80
0000001F00
0000003E00
0000007C00
000001F800
000003F000
000007E000
00000F8000
00001F0000
00003E0000
00007C0000
0000F80000
0001F00000
0003E00000
000FC00000
001F800000
003F000000
007C000000
00F8000000
01F0000000
03E0000000
07C0000000
0F80000000
3F00000000
7E00000000
FFFFFFFFFE
FFFFFFFFFE
FFFFFFFFFE
FFFFFFFFFE
ENDCHAR
STARTCHAR 0033
ENCODING 51
SWIDTH 534 0
DWIDTH 46 0
BBX 38 63 3 -1
BITMAP
1FFFFFFFF8
1FFFFFFFF8
1FFFFFFFF8
1FFFFFFFF8
00000001F0
00000003E0
00000007C0
0000000F80
0000001F00
0000003E00
0000007C00
000000F800
000001F000
000003E000
000007C000
00000F8000
00003F0000
00007E0000
0000FC0000
0001F80000
0003E00000
0007C00000
000F800000
001F780000
003FFFC000
007FFFF000
007FFFFC00
003E01FE00
0030003F00
0000000F80
00000007C0
00000003E0
00000001E0
00000001F0
00000000F0
00000000F8
0000000078
0000000078
0000000078
000000003C
000000003C
000000003C
000000003C
000000003C
000000003C
000000003C
000000003C
0000000038
0000000078
1000000078
F000000078
78000000F0
78000000F0
3C000001E0
3E000003E0
1F000007C0
0F80000FC0
07E0001F80
03F800FF00
01FFFFFC00
007FFFF800
001FFFE000
0003FF0000
ENDCHAR
STARTCHAR 0034
ENCODING 52
SWIDTH 580 0
DWIDTH 50 0
BBX 41 62 4 0
BITMAP
000007800000
000007800000
00000F000000
00000F000000
00000F000000
00001E000000
00001E000000
00003C000000
00003C000000
000078000000
000078000000
0000F0000000
0000F0000000
0001E0000000
0001E0000000
0003C0000000
0003C0000000
000780000000
000780000000
000F00000000
000F00000000
000F00000000
001E00000000
001E00000000
003C00000000
003C00000000
00780003C000
00780003C000
00F00003C000
00F00003C000
01E00003C000
01E00003C000
03C00003C000
03C00003C000
07800003C000
07800003C000
0F000003C000
0F000003C000
0F000003C000
1E000003C000
1E000003C000
3C000003C000
3C000003C000
78000003C000
78000003C000
FFFFFFFFFF80
FFFFFFFFFF80
FFFFFFFFFF80
FFFFFFFFFF80
00000003C000
00000003C000
00000003C000
00000003C000
00000003C000
00000003C000
00000003C000
00000003C000
00000003C000
00000003C000
00000003C000
00000003C000
00000003C000
ENDCHAR
STARTCHAR 0035
ENCODING 53
SWIDTH 569 0
DWIDTH 49 0
BBX 40 63 5 -1
BITMAP
1FFFFFFFE0
1FFFFFFFE0
1FFFFFFFE0
1FFFFFFFE0
3C00000000
3C00000000
3C00000000
3C00000000
3C00000000
3C00000000
3C00000000
3C00000000
3C00000000
3C00000000
3C00000000
3800000000
3800000000
3800000000
3800000000
3800000000
3800000000
7800000000
7801FF0000
780FFFE000
787FFFF800
78FFFFFE00
7BFC007F00
7FE0001F80
7FC00007C0
7F000003E0
7E000001F0
7C000000F8
3C00000078
080000003C
000000003C
000000001E
000000001E
000000000E
000000000F
000000000F
000000000F
000000000F
000000000F
000000000F
000000000F
000000000F
000000000F
E00000000E
E00000001E
F00000001E
F00000003C
780000003C
7800000078
3C000000F8
3E000001F0
1F000003E0
0FC00007C0
07F0001F80
03FC00FF00
00FFFFFE00
007FFFF800
001FFFE000
0001FF0000
ENDCHAR
STARTCHAR 0036
ENCODING 54
SWIDTH 615 0
DWIDTH 53 0
BBX 41 64 6 -1
BITMAP
0000FF800000
0007FFF00000
001FFFFE0000
007FFFFF0000
00FE003F8000
01F8000FE000
03E00003F000
07C00000F800
0F8000007800
1F0000003C00
1E0000003C00
3C0000001000
3C0000000000
780000000000
780000000000
700000000000
F00000000000
F00000000000
F00000000000
F00000000000
F00000000000
F00000000000
F00000000000
F000FF800000
F007FFF00000
F01FFFFE0000
F07FFFFF0000
F0FE003F8000
F1F80007E000
F3E00003F000
F7C00000F800
FF8000007800
FF0000003C00
FE0000003E00
FC0000001E00
FC0000000F00
F80000000F00
F80000000700
F00000000780
F00000000780
F00000000780
F00000000380
F00000000380
F00000000380
F00000000380
F00000000380
F00000000780
F00000000780
700000000780
780000000700
780000000F00
3C0000000F00
3C0000001E00
1E0000003E00
1F0000003C00
0F8000007800
07C00000F800
03E00003F000
01F8000FE000
00FE003FC000
007FFFFF0000
001FFFFE0000
0007FFF00000
0000FF800000
ENDCHAR
STARTCHAR 0037
ENCODING 55
SWIDTH 476 0
DWIDTH 41 0
BBX 34 62 3 0
BITMAP
FFFFFFFFC0
FFFFFFFFC0
FFFFFFFFC0
FFFFFFFFC0
00000003C0
0000000380
0000000780
0000000780
0000000F00
0000000F00
0000001E00
0000001E00
0000001E00
0000003C00
0000003C00
0000007800
0000007800
0000007000
000000F000
000000F000
000001E000
000001E000
000001C000
000003C000
000003C000
0000078000
0000078000
0000070000
00000F0000
00000F0000
00001E0000
00001E0000
00001C0000
00003C0000
00003C0000
0000780000
0000780000
0000F00000
0000F00000
0000F00000
0001E00000
0001E00000
0003C00000
0003C00000
0003800000
0007800000
0007800000
000F000000
000F000000
000E000000
001E000000
001E000000
003C000000
003C000000
0038000000
0078000000
0078000000
00F0000000
00F0000000
01E0000000
01E0000000
01E0000000
ENDCHAR
STARTCHAR 0038
ENCODING 56
SWIDTH 557 0
DWIDTH 48 0
BBX 38 64 5 -1
BITMAP
0003FF0000
001FFFE000
007FFFF800
01FFFFFE00
03FC00FF00
07E0001F80
0FC0000FC0
0F800007C0
1F000003E0
1E000001E0
3C000000F0
3C000000F0
3C000000F0
3C000000F0
3800000070
3800000078
3800000070
3800000070
3C000000F0
3C000000F0
3C000000F0
3E000001F0
1E000001E0
1F000003E0
0F800007C0
07C0000FC0
07F0003F80
03FC01FF00
00FFFFFC00
003FFFF800
00FFFFF800
01FFFFFE00
03F8007F00
07E0001F80
0F800007C0
1F000003E0
3E000001F0
3C000000F0
7C000000F8
7800000078
7800000078
7000000038
F00000003C
F00000003C
F00000003C
F00000003C
F00000003C
F00000003C
F00000003C
F00000003C
7000000038
7800000078
7800000078
3C000000F8
3C000000F0
3E000001F0
1F000003E0
0F800007C0
07E0001F80
03F8007F00
01FFFFFE00
00FFFFFC00
001FFFE000
0003FF0000
ENDCHAR
STARTCHAR 0039
ENCODING 57
SWIDTH 615 0
DWIDTH 53 0
BBX 41 64 6 -1
BITMAP
0000FF800000
0007FFF00000
001FFFFE0000
007FFFFF0000
00FE003F8000
01F80007E000
03E00003F000
07C00000F800
0F8000007800
1F0000003C00
1E0000003E00
3C0000001E00
3C0000000F00
780000000F00
780000000700
700000000780
F00000000780
F00000000780
F00000000380
F00000000380
F00000000380
F00000000380
F00000000380
F00000000780
F00000000780
700000000780
780000000780
780000000F80
3C0000000F80
3C0000001F80
1E0000003F80
1F0000003F80
0F8000007B80
07C00000F380
03E00003F380
01F8000FE380
00FE003F8380
007FFFFF0380
001FFFFC0380
0007FFF00380
0000FF800380
000000000380
000000000380
000000000380
000000000380
000000000380
000000000780
000000000780
000000000780
000000000700
000000000F00
000000000F00
040000001E00
1E0000003E00
1F0000003C00
0F8000007800
07C00000F800
03E00003F000
01F8000FE000
00FE003FC000
007FFFFF0000
001FFFFE0000
0007FFF80000
0000FF800000
ENDCHAR
STARTCHAR 003A
ENCODING 58
SWIDTH 267 0
DWIDTH 23 0
BBX 6 31 9 8
BITMAP
FC
FC
FC
FC
FC
00
00
00
00
00
00
00
00
00
00
00
00
00
00
00
00
00
00
00
00
00
FC
FC
FC
FC
FC
ENDCHAR
STARTCHAR 003B
ENCODING 59
SWIDTH 278 0
DWIDTH 24 0
BBX 6 55 9 -9
BITMAP
FC
FC
FC
FC
FC
00
00
00
00
00
00
00
00
00
00
00
00
00
00
00
00
00
00
00
00
00
00
00
00
00
00
00
00
00
00
00
00
00
00
FC
FC
FC
FC
FC
FC
FC
FC
1C
1C
1C
1C
18
38
78
60
ENDCHAR
STARTCHAR 003C
ENCODING 60
SWIDTH 603 0
DWIDTH 52 0
BBX 22 39 12 7
BITMAP
000010
00003C
00007C
0000F8
0001F0
0003E0
0007C0
000F80
001F00
003E00
007C00
00F800
01F000
03E000
07C000
0F8000
1F0000
3E0000
7C0000
F80000
780000
3C0000
1E0000
0F0000
078000
03C000
01E000
00F000
007800
003C00
001E00
000F00
000780
0003C0
0001E0
0000F0
000078
00003C
000018
ENDCHAR
STARTCHAR 003D
ENCODING 61
SWIDTH 754 0
DWIDTH 65 0
BBX 44 18 10 22
BITMAP
FFFFFFFFFFF0
FFFFFFFFFFF0
FFFFFFFFFFF0
FFFFFFFFFFF0
000000000000
000000000000
000000000000
000000000000
000000000000
000000000000
000000000000
000000000000
000000000000
000000000000
FFFFFFFFFFF0
FFFFFFFFFFF0
FFFFFFFFFFF0
FFFFFFFFFFF0
ENDCHAR
STARTCHAR 003E
ENCODING 62
SWIDTH 603 0
DWIDTH 52 0
BBX 22 40 17 7
BITMAP
200000
700000
F80000
7C0000
3E0000
1F0000
0F8000
07C000
03E000
01F000
00F800
007C00
003E00
001F00
000F80
0007C0
0003E0
0001F0
0000F8
00007C
00007C
0000F8
0001F0
0003E0
0007C0
000F80
001F00
003E00
007C00
00F800
01F000
03E000
07C000
0F8000
1F0000
3E0000
7C0000
F80000
700000
200000
ENDCHAR
STARTCHAR 003F
ENCODING 63
SWIDTH 499 0
DWIDTH 43 0
BBX 35 63 4 0
BITMAP
0007FC0000
003FFFC000
01FFFFF000
03FFFFF800
07F001FE00
0F80003F00
1F00001F00
3E00000F80
3C000007C0
78000003C0
78000003C0
78000001E0
70000001E0
F0000001E0
F0000001E0
F0000001E0
00000001E0
00000001E0
00000001E0
00000001E0
00000001E0
00000003C0
00000003C0
0000000780
0000000F80
0000001F00
0000003E00
000000FC00
000001F800
000007F000
00000FC000
00001F8000
00003F0000
00007C0000
0000780000
0000F80000
0000F00000
0001E00000
0001E00000
0001E00000
0001E00000
0001E00000
0001E00000
0001E00000
0001E00000
0001E00000
0000000000
0000000000
0000000000
0000000000
0000000000
0000000000
0000000000
0000000000
0000000000
0000000000
0000000000
0001E00000
0001E00000
0001E00000
0001E00000
0001E00000
0001E00000
ENDCHAR
STARTCHAR 0040
ENCODING 64
SWIDTH 894 0
DWIDTH 77 0
BBX 63 65 7 -9
BITMAP
00000003E0000000
000001FFFFC00000
00000FFFFFF80000
00003FFFFFFE0000
0000FFE003FF8000
0003FE00003FE000
0007F0000007F000
001FC0000001FC00
003F800000007E00
007E000000003F00
00FC000000001F80
01F8000000000F80
01F00000000007C0
03E00000000003E0
07C00000000001E0
0F800000000000F0
0F800000000000F0
1F00000000000078
1E00000000000078
3E0000000000003C
3C0000000000003C
3C0000000000003C
7C0000020000001E
7800003FF000001E
780000FFFDE0001E
780001FFFFE0001E
F00003F03FE0001E
F00007C00FE0001E
F0000F8007E0001E
F0000F0003E0000E
F0000E0003E0000E
F0001E0001E0000E
F0001E0001E0001E
F0001E0001E0001E
F0001E0001E0001E
F0001E0001E0001E
F0001E0001E0001E
F0000E0003E0003C
F0000F0003E0003C
F8000F8007E0007C
780007C00FF00078
780003F03FF800F8
780003FFFE7C01F0
3C0000FFFC7F8FE0
3C00007FF83FFFC0
3E00000F801FFF80
1E0000000003FE00
1F00000000000000
0F00000000000000
0F80000000000000
07C0000000000000
03E0000000000000
03F0000000000000
01F8000000000000
00FC000000000000
007E000000000000
003F000000000000
001FC00000018000
000FF00000078000
0003FC00001FC000
0001FF8001FF8000
00007FFFFFFE0000
00001FFFFFF80000
000003FFFFC00000
0000003FFC000000
ENDCHAR
STARTCHAR 0041
ENCODING 65
SWIDTH 603 0
DWIDTH 52 0
BBX 49 62 2 0
BITMAP
000003C0000000
000003E0000000
000007E0000000
000007E0000000
000007F0000000
00000FF0000000
00000F78000000
00000E78000000
00001E78000000
00001E3C000000
00003C3C000000
00003C3C000000
00003C1E000000
0000781E000000
0000780E000000
0000700F000000
0000F00F000000
0000F007800000
0000E007800000
0001E007800000
0001E003C00000
0003C003C00000
0003C003C00000
0003C001E00000
00078001E00000
00078000E00000
00070000F00000
000F0000F00000
000F0000780000
000E0000780000
001E0000780000
001E00003C0000
003C00003C0000
003C00003C0000
003C00001E0000
007800001E0000
007800000E0000
007800000F0000
00F000000F0000
00F00000078000
00E00000078000
01E00000078000
01E0000003C000
03FFFFFFFFC000
03FFFFFFFFC000
03FFFFFFFFE000
0780000001E000
0780000000E000
0780000000F000
0F00000000F000
0F000000007800
0E000000007800
1E000000007800
1E000000003C00
3C000000003C00
3C000000003C00
3C000000001E00
78000000001E00
78000000000E00
78000000000F00
F0000000000F00
F0000000000780
ENDCHAR
STARTCHAR 0042
ENCODING 66
SWIDTH 603 0
DWIDTH 52 0
BBX 43 62 6 0
BITMAP
FFFFFFF00000
FFFFFFFE0000
FFFFFFFF8000
FFFFFFFFC000
F0000007F000
F0000001F000
F0000000F800
F00000007C00
F00000003E00
F00000001E00
F00000001E00
F00000000F00
F00000000F00
F00000000F00
F00000000F00
F00000000F00
F00000000F00
F00000000F00
F00000000F00
F00000001F00
F00000001E00
F00000003E00
F00000003C00
F00000007C00
F0000000F800
F0000003F000
F000000FE000
FFFFFFFFC000
FFFFFFFF8000
FFFFFFFF8000
FFFFFFFFE000
F0000007F800
F0000001FC00
F00000007E00
F00000003F00
F00000001F00
F00000000F80
F000000007C0
F000000007C0
F000000003C0
F000000003E0
F000000001E0
F000000001E0
F000000001E0
F000000001E0
F000000001E0
F000000001E0
F000000001E0
F000000001E0
F000000001E0
F000000003E0
F000000003C0
F000000007C0
F00000000F80
F00000001F80
F00000003F00
F0000000FE00
F0000003FC00
FFFFFFFFF800
FFFFFFFFE000
FFFFFFFF8000
FFFFFFFC0000
ENDCHAR
STARTCHAR 0043
ENCODING 67
SWIDTH 696 0
DWIDTH 60 0
BBX 54 64 3 -1
BITMAP
000007FF800000
00007FFFF80000
0001FFFFFF0000
0007FFFFFFC000
001FF0001FE000
003FC00007F800
007E000001FC00
00FC0000007E00
01F80000003F00
03E00000001F80
07C00000000F80
07C000000007C0
0F8000000003E0
0F0000000001E0
1F0000000001F0
1E0000000000F0
3E0000000000F8
3C000000000078
7C000000000078
7800000000007C
7800000000003C
78000000000000
F0000000000000
F0000000000000
F0000000000000
F0000000000000
F0000000000000
F0000000000000
F0000000000000
F0000000000000
E0000000000000
E0000000000000
E0000000000000
E0000000000000
E0000000000000
F0000000000000
F0000000000000
F0000000000000
F0000000000000
F0000000000000
F0000000000000
F0000000000000
78000000000000
7800000000003C
7800000000007C
7C000000000078
3C000000000078
3C0000000000F8
1E0000000000F0
1E0000000001F0
0F0000000001E0
0F8000000003E0
078000000007C0
07C00000000F80
03E00000001F80
01F00000003F00
00FC0000007E00
007E000001FC00
003F800007F800
001FF0003FE000
0007FFFFFFC000
0001FFFFFF0000
00003FFFF80000
000003FFC00000
ENDCHAR
STARTCHAR 0044
ENCODING 68
SWIDTH 650 0
DWIDTH 56 0
BBX 47 62 6 0
BITMAP
FFFFFFE00000
FFFFFFFE0000
FFFFFFFF8000
FFFFFFFFE000
F000000FF000
F0000003FC00
F00000007E00
F00000003F00
F00000001F00
F00000000F80
F000000007C0
F000000003C0
F000000001E0
F000000001E0
F000000000F0
F000000000F0
F00000000070
F00000000078
F00000000078
F00000000078
F0000000003C
F0000000003C
F0000000003C
F0000000003C
F0000000003C
F0000000001C
F0000000001E
F0000000001E
F0000000001E
F0000000001E
F0000000001E
F0000000001E
F0000000001E
F0000000001E
F0000000001E
F0000000001E
F0000000001C
F0000000003C
F0000000003C
F0000000003C
F0000000003C
F0000000003C
F00000000078
F00000000078
F00000000078
F00000000070
F000000000F0
F000000000F0
F000000001E0
F000000001E0
F000000003C0
F000000007C0
F00000000F80
F00000001F00
F00000003F00
F0000000FE00
F0000001FC00
F000000FF000
FFFFFFFFE000
FFFFFFFF8000
FFFFFFFE0000
FFFFFFE00000
ENDCHAR
STARTCHAR 0045
ENCODING 69
SWIDTH 557 0
DWIDTH 48 0
BBX 38 62 6 0
BITMAP
FFFFFFFFFC
FFFFFFFFFC
FFFFFFFFFC
FFFFFFFFFC
F000000000
F000000000
F000000000
F000000000
F000000000
F000000000
F000000000
F000000000
F000000000
F000000000
F000000000
F000000000
F000000000
F000000000
F000000000
F000000000
F000000000
F000000000
F000000000
F000000000
F000000000
F000000000
F000000000
F000000000
F000000000
FFFFFFFF80
FFFFFFFF80
FFFFFFFF80
FFFFFFFF80
F000000000
F000000000
F000000000
F000000000
F000000000
F000000000
F000000000
F000000000
F000000000
F000000000
F000000000
F000000000
F000000000
F000000000
F000000000
F000000000
F000000000
F000000000
F000000000
F000000000
F000000000
F000000000
F000000000
F000000000
F000000000
FFFFFFFFFC
FFFFFFFFFC
FFFFFFFFFC
FFFFFFFFFC
ENDCHAR
STARTCHAR 0046
ENCODING 70
SWIDTH 487 0
DWIDTH 42 0
BBX 34 62 6 0
BITMAP
FFFFFFFFC0
FFFFFFFFC0
FFFFFFFFC0
FFFFFFFFC0
F000000000
F000000000
F000000000
F000000000
F000000000
F000000000
F000000000
F000000000
F000000000
F000000000
F000000000
F000000000
F000000000
F000000000
F000000000
F000000000
F000000000
F000000000
F000000000
F000000000
F000000000
F000000000
F000000000
F000000000
F000000000
FFFFFFF800
FFFFFFF800
FFFFFFF800
FFFFFFF800
F000000000
F000000000
F000000000
F000000000
F000000000
F000000000
F000000000
F000000000
F000000000
F000000000
F000000000
F000000000
F000000000
F000000000
F000000000
F000000000
F000000000
F000000000
F000000000
F000000000
F000000000
F000000000
F000000000
F000000000
F000000000
F000000000
F000000000
F000000000
F000000000
ENDCHAR
STARTCHAR 0047
ENCODING 71
SWIDTH 685 0
DWIDTH 59 0
BBX 54 64 3 -1
BITMAP
000007FF800000
00007FFFF80000
0001FFFFFE0000
0007FFFFFF8000
001FF0003FE000
003FC00007F000
007E000001F800
00FC000000FC00
01F80000003E00
03E00000001F00
07C00000000F00
07C00000000F80
0F8000000007C0
0F0000000003C0
1F0000000003C0
1E000000000180
3C000000000000
3C000000000000
7C000000000000
78000000000000
78000000000000
78000000000000
F0000000000000
F0000000000000
F0000000000000
F0000000000000
F0000000000000
F0000000000000
F0000000000000
F0000000000000
E0000000000000
E0000000000000
E00000007FFFF8
E00000007FFFFC
E00000007FFFFC
F00000007FFFFC
F000000000003C
F000000000003C
F0000000000038
F0000000000038
F0000000000078
F0000000000078
78000000000078
78000000000078
78000000000078
7C0000000000F0
3C0000000000F0
3C0000000000F0
1E0000000001F0
1E0000000001E0
0F0000000003E0
0F8000000003C0
078000000007C0
07C00000000780
03E00000000F00
01F00000001F00
00FC0000007E00
007E000000FC00
003F800003F800
001FF0001FE000
0007FFFFFFC000
0001FFFFFF0000
00003FFFF80000
000003FF800000
ENDCHAR
STARTCHAR 0048
ENCODING 72
SWIDTH 661 0
DWIDTH 57 0
BBX 45 62 6 0
BITMAP
F00000000078
F00000000078
F00000000078
F00000000078
F00000000078
F00000000078
F00000000078
F00000000078
F00000000078
F00000000078
F00000000078
F00000000078
F00000000078
F00000000078
F00000000078
F00000000078
F00000000078
F00000000078
F00000000078
F00000000078
F00000000078
F00000000078
F00000000078
F00000000078
F00000000078
F00000000078
F00000000078
F00000000078
F00000000078
FFFFFFFFFFF8
FFFFFFFFFFF8
FFFFFFFFFFF8
FFFFFFFFFFF8
F00000000078
F00000000078
F00000000078
F00000000078
F00000000078
F00000000078
F00000000078
F00000000078
F00000000078
F00000000078
F00000000078
F00000000078
F00000000078
F00000000078
F00000000078
F00000000078
F00000000078
F00000000078
F00000000078
F00000000078
F00000000078
F00000000078
F00000000078
F00000000078
F00000000078
F00000000078
F00000000078
F00000000078
F00000000078
ENDCHAR
STARTCHAR 0049
ENCODING 73
SWIDTH 197 0
DWIDTH 17 0
BBX 4 62 7 0
BITMAP
F0
F0
F0
F0
F0
F0
F0
F0
F0
F0
F0
F0
F0
F0
F0
F0
F0
F0
F0
F0
F0
F0
F0
F0
F0
F0
F0
F0
F0
F0
F0
F0
F0
F0
F0
F0
F0
F0
F0
F0
F0
F0
F0
F0
F0
F0
F0
F0
F0
F0
F0
F0
F0
F0
F0
F0
F0
F0
F0
F0
F0
F0
ENDCHAR
STARTCHAR 004A
ENCODING 74
SWIDTH 441 0
DWIDTH 38 0
BBX 31 63 0 -1
BITMAP
0000001E
0000001E
0000001E
0000001E
0000001E
0000001E
0000001E
0000001E
0000001E
0000001E
0000001E
0000001E
0000001E
0000001E
0000001E
0000001E
0000001E
0000001E
0000001E
0000001E
0000001E
0000001E
0000001E
0000001E
0000001E
0000001E
0000001E
0000001E
0000001E
0000001E
0000001E
0000001E
0000001E
0000001E
0000001E
0000001E
0000001E
0000001E
0000001E
0000001E
0000001E
0000001E
0000001E
0000001E
0000001E
0000001E
0000001E
0000001E
0000001E
0000001E
3000001E
F000001C
F000003C
7800003C
7C000078
3E0000F8
3F0001F0
1F8003F0
0FE00FE0
07FFFFC0
01FFFF00
00FFFE00
001FF000
ENDCHAR
STARTCHAR 004B
ENCODING 75
SWIDTH 557 0
DWIDTH 48 0
BBX 42 62 6 0
BITMAP
F00000003E00
F00000007C00
F0000000F800
F0000001F000
F0000003E000
F0000007C000
F000000F8000
F000001F0000
F000003E0000
F00000FC0000
F00001F80000
F00003F00000
F00007C00000
F0000F800000
F0001F000000
F0003E000000
F0007C000000
F000F8000000
F001F0000000
F003E0000000
F007C0000000
F00F80000000
F01F00000000
F03E00000000
F07C00000000
F0F800000000
F1F000000000
F3E000000000
F7C000000000
FF8000000000
F7C000000000
F3E000000000
F1F000000000
F0F800000000
F07C00000000
F03E00000000
F01F00000000
F00F80000000
F007C0000000
F003E0000000
F001F0000000
F000F8000000
F0007C000000
F0003E000000
F0001F000000
F0000F800000
F00007C00000
F00003E00000
F00001F00000
F00000F80000
F000007C0000
F000003E0000
F000001F0000
F000000F8000
F0000007C000
F0000003E000
F0000001F000
F0000000F800
F00000007C00
F00000003E00
F00000001F80
F000000007C0
ENDCHAR
STARTCHAR 004C
ENCODING 76
SWIDTH 499 0
DWIDTH 43 0
BBX 34 62 7 0
BITMAP
F000000000
F000000000
F000000000
F000000000
F000000000
F000000000
F000000000
F000000000
F000000000
F000000000
F000000000
F000000000
F000000000
F000000000
F000000000
F000000000
F000000000
F000000000
F000000000
F000000000
F000000000
F000000000
F000000000
F000000000
F000000000
F000000000
F000000000
F000000000
F000000000
F000000000
F000000000
F000000000
F000000000
F000000000
F000000000
F000000000
F000000000
F000000000
F000000000
F000000000
F000000000
F000000000
F000000000
F000000000
F000000000
F000000000
F000000000
F000000000
F000000000
F000000000
F000000000
F000000000
F000000000
F000000000
F000000000
F000000000
F000000000
F000000000
FFFFFFFFC0
FFFFFFFFC0
FFFFFFFFC0
FFFFFFFFC0
ENDCHAR
STARTCHAR 004D
ENCODING 77
SWIDTH 836 0
DWIDTH 72 0
BBX 60 62 6 0
BITMAP
F0000000000000F0
F0000000000001F0
F8000000000001F0
F8000000000003F0
FC000000000003F0
FC000000000007F0
FC000000000007F0
FE00000000000FF0
FE00000000000FF0
FF00000000000FF0
FF00000000001EF0
F780000000001EF0
F780000000003CF0
F3C0000000003CF0
F3C00000000078F0
F1E00000000078F0
F1E000000000F0F0
F0E000000000F0F0
F0F000000000E0F0
F07000000001E0F0
F07800000001E0F0
F07800000003C0F0
F03C00000003C0F0
F03C0000000780F0
F01E0000000780F0
F01E0000000F00F0
F00F0000000F00F0
F00F0000001E00F0
F0078000001E00F0
F0078000001C00F0
F0078000003C00F0
F003C000003C00F0
F003C000007800F0
F001E000007800F0
F001E00000F000F0
F000F00000F000F0
F000F00001E000F0
F000780001E000F0
F000780003C000F0
F0003C0003C000F0
F0003C0003C000F0
F0003C00078000F0
F0001E00078000F0
F0001E000F0000F0
F0000F000F0000F0
F0000F001E0000F0
F00007801E0000F0
F00007803C0000F0
F00003C03C0000F0
F00003C0780000F0
F00001E0780000F0
F00001E0780000F0
F00001E0F00000F0
F00000F0F00000F0
F00000F1E00000F0
F0000079E00000F0
F000007BC00000F0
F000003FC00000F0
F000003F800000F0
F000001F800000F0
F000001F000000F0
F000000F000000F0
ENDCHAR
STARTCHAR 004E
ENCODING 78
SWIDTH 661 0
DWIDTH 57 0
BBX 45 62 6 0
BITMAP
F00000000078
F80000000078
F80000000078
FC0000000078
FE0000000078
FE0000000078
FF0000000078
FF8000000078
F78000000078
F3C000000078
F3E000000078
F1E000000078
F0F000000078
F0F800000078
F07C00000078
F03C00000078
F03E00000078
F01F00000078
F00F00000078
F00780000078
F007C0000078
F003C0000078
F001E0000078
F001F0000078
F000F0000078
F00078000078
F0007C000078
F0003C000078
F0001E000078
F0001F000078
F0000F000078
F00007800078
F00007C00078
F00003C00078
F00001E00078
F00001F00078
F00000F00078
F00000780078
F000007C0078
F000003C0078
F000001E0078
F000001F0078
F000000F8078
F00000078078
F0000007C078
F0000003E078
F0000001E078
F0000000F078
F0000000F878
F00000007878
F00000003C78
F00000003E78
F00000001E78
F00000000F78
F00000000FF8
F000000007F8
F000000003F8
F000000003F8
F000000001F8
F000000000F8
F000000000F8
F00000000078
ENDCHAR
STARTCHAR 004F
ENCODING 79
SWIDTH 708 0
DWIDTH 61 0
BBX 55 64 3 -1
BITMAP
000007FF800000
00007FFFF80000
0001FFFFFF0000
0007FFFFFFC000
001FF0003FE000
003FC00007F800
007E000001FC00
00FC0000007E00
01F80000003F00
03E00000001F80
07C00000000F80
07C000000007C0
0F8000000003E0
0F0000000001E0
1F0000000001F0
1E0000000000F0
3E0000000000F8
3C000000000078
7C000000000078
7800000000007C
7800000000003C
7800000000003C
F000000000003C
F000000000001C
F000000000001E
F000000000001E
F000000000001E
F000000000001E
F000000000001E
F000000000001E
E000000000001E
E000000000001E
E000000000001E
E000000000001E
E000000000001E
F000000000001E
F000000000001E
F000000000001E
F000000000001E
F000000000001E
F000000000001C
F000000000003C
7800000000003C
7800000000003C
7800000000007C
7C000000000078
3C000000000078
3C0000000000F8
1E0000000000F0
1E0000000001F0
0F0000000001E0
0F8000000003E0
078000000007C0
07C00000000F80
03E00000001F80
01F00000003F00
00FC0000007E00
007E000001FC00
003F800007F800
001FF0003FE000
0007FFFFFFC000
0001FFFFFF0000
00003FFFF80000
000003FFC00000
ENDCHAR
STARTCHAR 0050
ENCODING 80
SWIDTH 580 0
DWIDTH 50 0
BBX 41 62 6 0
BITMAP
FFFFFFF00000
FFFFFFFE0000
FFFFFFFF8000
FFFFFFFFC000
F0000007F000
F0000001F800
F0000000F800
F00000007C00
F00000003E00
F00000001E00
F00000000F00
F00000000F00
F00000000F80
F00000000780
F00000000780
F00000000780
F00000000780
F00000000380
F00000000380
F00000000380
F00000000780
F00000000780
F00000000780
F00000000780
F00000000F80
F00000000F00
F00000000F00
F00000001E00
F00000003E00
F00000007C00
F0000000FC00
F0000001F800
F0000007F000
FFFFFFFFC000
FFFFFFFF8000
FFFFFFFE0000
FFFFFFF00000
F00000000000
F00000000000
F00000000000
F00000000000
F00000000000
F00000000000
F00000000000
F00000000000
F00000000000
F00000000000
F00000000000
F00000000000
F00000000000
F00000000000
F00000000000
F00000000000
F00000000000
F00000000000
F00000000000
F00000000000
F00000000000
F00000000000
F00000000000
F00000000000
F00000000000
ENDCHAR
STARTCHAR 0051
ENCODING 81
SWIDTH 708 0
DWIDTH 61 0
BBX 55 64 3 -1
BITMAP
000007FF800000
00007FFFF80000
0001FFFFFF0000
0007FFFFFFC000
001FF0003FE000
003FC00007F800
007E000001FC00
00FC0000007E00
01F80000003F00
03E00000001F80
07C00000000F80
07C000000007C0
0F8000000003E0
0F0000000001E0
1F0000000001F0
1E0000000000F0
3E0000000000F8
3C000000000078
7C000000000078
7800000000007C
7800000000003C
7800000000003C
F000000000003C
F000000000001C
F000000000001E
F000000000001E
F000000000001E
F000000000001E
F000000000001E
F000000000001E
E000000000001E
E000000000001E
E000000000001E
E000000000001E
E000000000001E
F000000000001E
F000000000001E
F000000000001E
F000000000001E
F000000000001E
F000000000001C
F000000000003C
7800000000003C
7800000000003C
7800000000007C
7C000000000078
3C000000030078
3C0000000780F8
1E0000000FC0F0
1E00000007E1F0
0F00000003F1E0
0F80000001FBE0
0780000000FFC0
07C00000007F80
03E00000003F80
01F00000003F80
00FC0000007FC0
007E000001FFE0
003F800007FBF0
001FF0003FE1F8
0007FFFFFFC0FC
0001FFFFFF007C
00003FFFF80038
000003FFC00010
ENDCHAR
STARTCHAR 0052
ENCODING 82
SWIDTH 615 0
DWIDTH 53 0
BBX 43 62 6 0
BITMAP
FFFFFFF00000
FFFFFFFE0000
FFFFFFFF8000
FFFFFFFFC000
F0000007F000
F0000001F800
F0000000F800
F00000007C00
F00000003E00
F00000001E00
F00000000F00
F00000000F00
F00000000F80
F00000000780
F00000000780
F00000000780
F00000000780
F00000000380
F00000000380
F00000000380
F00000000780
F00000000780
F00000000780
F00000000780
F00000000F80
F00000000F00
F00000000F00
F00000001E00
F00000003E00
F00000007C00
F0000000F800
F0000001F800
F0000007F000
FFFFFFFFC000
FFFFFFFF8000
FFFFFFFE0000
FFFFFFFE0000
F000001E0000
F000000F0000
F000000F0000
F00000078000
F00000078000
F0000007C000
F0000003C000
F0000003E000
F0000001E000
F0000001F000
F0000000F000
F0000000F800
F00000007800
F00000007C00
F00000003C00
F00000003E00
F00000001E00
F00000001F00
F00000000F00
F00000000F80
F00000000780
F000000007C0
F000000003C0
F000000003C0
F000000001E0
ENDCHAR
STARTCHAR 0053
ENCODING 83
SWIDTH 592 0
DWIDTH 51 0
BBX 45 64 3 -1
BITMAP
00007FF00000
0007FFFE0000
001FFFFFC000
007FFFFFE000
00FF0007F800
01F80001FC00
03E000007E00
07C000001F00
0F8000000F80
0F00000007C0
1E00000003C0
1E00000001E0
3C00000001E0
3C00000000F0
3C00000000F0
3C0000000070
3C0000000078
3C0000000078
3C0000000040
3C0000000000
1E0000000000
1F0000000000
0F0000000000
0FC000000000
07E000000000
03F800000000
01FF00000000
00FFE0000000
003FFC000000
0007FFC00000
0000FFF80000
00001FFF0000
000001FFE000
0000003FF800
00000007FE00
00000000FF00
000000001F80
0000000007C0
0000000003E0
0000000001E0
0000000000F0
0000000000F0
000000000078
000000000078
000000000078
000000000038
000000000038
E00000000038
F00000000078
F00000000078
F80000000078
780000000070
7C00000000F0
3E00000000F0
1F00000001E0
1F80000003E0
0FC0000007C0
07F000001F80
03FC00007F00
00FF8001FE00
007FFFFFFC00
001FFFFFF000
0003FFFF8000
00003FF80000
ENDCHAR
STARTCHAR 0054
ENCODING 84
SWIDTH 592 0
DWIDTH 51 0
BBX 49 62 1 0
BITMAP
FFFFFFFFFFFF80
FFFFFFFFFFFF80
FFFFFFFFFFFF80
FFFFFFFFFFFF80
000001C0000000
000001C0000000
000001C0000000
000001C0000000
000001C0000000
000001C0000000
000001C0000000
000001C0000000
000001C0000000
000001C0000000
000001C0000000
000001C0000000
000001C0000000
000001C0000000
000001C0000000
000001C0000000
000001C0000000
000001C0000000
000001C0000000
000001C0000000
000001C0000000
000001C0000000
000001C0000000
000001C0000000
000001C0000000
000001C0000000
000001C0000000
000001C0000000
000001C0000000
000001C0000000
000001C0000000
000001C0000000
000001C0000000
000001C0000000
000001C0000000
000001C0000000
000001C0000000
000001C0000000
000001C0000000
000001C0000000
000001C0000000
000001C0000000
000001C0000000
000001C0000000
000001C0000000
000001C0000000
000001C0000000
000001C0000000
000001C0000000
000001C0000000
000001C0000000
000001C0000000
000001C0000000
000001C0000000
000001C0000000
000001C0000000
000001C0000000
000001C0000000
ENDCHAR
STARTCHAR 0055
ENCODING 85
SWIDTH 685 0
DWIDTH 59 0
BBX 47 63 6 -1
BITMAP
F0000000000E
F0000000000E
F0000000000E
F0000000000E
F0000000000E
F0000000000E
F0000000000E
F0000000000E
F0000000000E
F0000000000E
F0000000000E
F0000000000E
F0000000000E
F0000000000E
F0000000000E
F0000000000E
F0000000000E
F0000000000E
F0000000000E
F0000000000E
F0000000000E
F0000000000E
F0000000000E
F0000000000E
F0000000000E
F0000000000E
F0000000000E
F0000000000E
F0000000000E
F0000000000E
F0000000000E
F0000000000E
F0000000000E
F0000000000E
F0000000000E
F0000000000E
F0000000000E
F0000000000E
F0000000000E
F0000000000E
F0000000000E
F0000000000E
F0000000001E
F0000000001E
F0000000001E
78000000001E
78000000003E
78000000003C
7C000000003C
3C000000007C
3E0000000078
1E00000000F8
1F00000001F0
0F80000003E0
07C0000007E0
03E000000FC0
01F800003F80
00FE00007F00
007F8003FE00
003FFEFFF800
000FFFFFE000
0001FFFF8000
00003FF80000
ENDCHAR
STARTCHAR 0056
ENCODING 86
SWIDTH 580 0
DWIDTH 50 0
BBX 48 62 1 0
BITMAP
E0000000000F
F0000000000F
F0000000000F
78000000001E
78000000001E
78000000001C
3C000000003C
3C000000003C
1C0000000078
1E0000000078
1E0000000078
0E00000000F0
0F00000000F0
0F00000000F0
0780000001E0
0780000001E0
0780000001C0
03C0000003C0
03C0000003C0
01C000000780
01E000000780
01E000000780
00E000000F00
00F000000F00
00F000000F00
007800001E00
007800001E00
007800001C00
003C00003C00
003C00003C00
001C00007800
001E00007800
001E00007800
000E0000F000
000F0000F000
000F0000F000
00078001E000
00078001E000
00078001C000
0003C003C000
0003C003C000
0001C0078000
0001E0078000
0001E0078000
0000E00F0000
0000F00F0000
0000F00F0000
0000781E0000
0000781E0000
0000781C0000
00003C3C0000
00003C3C0000
00001C780000
00001E780000
00001E780000
00000EF00000
00000FF00000
00000FF00000
000007E00000
000007E00000
000007C00000
000003C00000
ENDCHAR
STARTCHAR 0057
ENCODING 87
SWIDTH 905 0
DWIDTH 78 0
BBX 74 62 2 0
BITMAP
F00000001E00000001C0
F00000001E00000003C0
F00000003F00000003C0
700000003F00000003C0
780000003F0000000780
780000003F8000000780
380000007F8000000780
3C0000007F8000000700
3C0000007B8000000F00
3C000000F3C000000F00
1C000000F3C000000F00
1E000000F3C000001E00
1E000000E1E000001E00
0E000001E1E000001E00
0F000001E1E000001C00
0F000001E0E000003C00
0F000003C0F000003C00
07000003C0F000003C00
07800003C0F000007800
07800003807800007800
03800007807800007800
03C00007807800007000
03C0000780380000F000
03C0000F003C0000F000
01C0000F003C0000F000
01E0000F001C0001E000
01E0000E001E0001E000
00E0001E001E0001E000
00F0001E001E0001C000
00F0001E000E0003C000
00F0003C000F0003C000
0070003C000F0003C000
0078003C000700078000
00780038000780078000
00380078000780078000
003C0078000780070000
003C00780003800F0000
003C00F00003C00F0000
001C00F00003C00F0000
001E00F00001C01E0000
001E00E00001E01E0000
000E01E00001E01E0000
000F01E00001E01C0000
000F01E00000E03C0000
000F03C00000F03C0000
000703C00000F03C0000
000783C0000070780000
00078380000078780000
00038780000078780000
0003C780000078700000
0003C78000003CF00000
0003CF0000003CF00000
0001EF0000003CF00000
0001EF0000001DE00000
0001EE0000001FE00000
0000FE0000001FE00000
0000FE0000001FC00000
0000FE0000000FC00000
0000FC0000000FC00000
00007C0000000FC00000
00007C00000007800000
00007800000007800000
ENDCHAR
STARTCHAR 0058
ENCODING 88
SWIDTH 569 0
DWIDTH 49 0
BBX 47 62 1 0
BITMAP
78000000003E
7C000000003C
3C0000000078
1E00000000F8
1F00000000F0
0F00000001E0
0780000003C0
03C0000007C0
03E000000780
01E000000F00
00F000001F00
00F800001E00
007800003C00
003C00007C00
003E00007800
001E0000F000
000F0001E000
00078001E000
00078003C000
0003C0078000
0001E0078000
0001E00F0000
0000F01E0000
0000783E0000
0000783C0000
00003C780000
00001EF80000
00001FF00000
00000FE00000
000007C00000
000003C00000
000007C00000
00000FE00000
00000FF00000
00001EF00000
00003C780000
00003C3C0000
0000783E0000
0000F01E0000
0001F00F0000
0001E00F8000
0003C0078000
0007C003C000
00078003E000
000F0001E000
001E0000F000
001E0000F800
003C00007800
007800003C00
007800001E00
00F000001F00
01E000000F00
03E000000780
03C0000007C0
0780000003C0
0F80000001E0
0F00000001F0
1E00000000F0
3E0000000078
3C000000007C
78000000003C
F8000000001E
ENDCHAR
STARTCHAR 0059
ENCODING 89
SWIDTH 522 0
DWIDTH 45 0
BBX 44 62 0 0
BITMAP
F000000000F0
7800000000F0
7C00000001E0
3C00000001E0
1E00000003C0
1E00000007C0
0F0000000780
0F0000000F00
078000000F00
07C000001E00
03C000003E00
01E000003C00
01E000007C00
00F000007800
00F80000F000
00780000F000
007C0001E000
003C0003E000
001E0003C000
001E00078000
000F00078000
000F800F0000
0007800F0000
0003C01E0000
0003C03E0000
0001E03C0000
0001E0780000
0000F0780000
0000F8F00000
000078F00000
00003DE00000
00003FE00000
00001FC00000
00001F800000
00000F800000
00000F000000
000007000000
000007000000
000007000000
000007000000
000007000000
000007000000
000007000000
000007000000
000007000000
000007000000
000007000000
000007000000
000007000000
000007000000
000007000000
000007000000
000007000000
000007000000
000007000000
000007000000
000007000000
000007000000
000007000000
000007000000
000007000000
000007000000
ENDCHAR
STARTCHAR 005A
ENCODING 90
SWIDTH 580 0
DWIDTH 50 0
BBX 42 62 4 0
BITMAP
FFFFFFFFFFC0
FFFFFFFFFFC0
FFFFFFFFFF80
FFFFFFFFFF00
000000000F00
000000001E00
000000001E00
000000003C00
000000007800
000000007800
00000000F000
00000001E000
00000001E000
00000003C000
00000007C000
000000078000
0000000F0000
0000000F0000
0000001E0000
0000003C0000
0000003C0000
000000780000
000000F00000
000000F00000
000001E00000
000001E00000
000003C00000
000007800000
000007800000
00000F000000
00001E000000
00001E000000
00003C000000
00007C000000
000078000000
0000F0000000
0000F0000000
0001E0000000
0003C0000000
0003C0000000
000780000000
000F80000000
000F00000000
001E00000000
001E00000000
003C00000000
007800000000
007800000000
00F000000000
01E000000000
01E000000000
03C000000000
07C000000000
078000000000
0F0000000000
0F0000000000
1E0000000000
3C0000000000
3FFFFFFFFFC0
7FFFFFFFFFC0
FFFFFFFFFFC0
FFFFFFFFFFC0
ENDCHAR
STARTCHAR 005B
ENCODING 91
SWIDTH 394 0
DWIDTH 34 0
BBX 14 95 12 -19
BITMAP
FFFC
FFFC
FFFC
FFFC
F000
F000
F000
F000
F000
F000
F000
F000
F000
F000
F000
F000
F000
F000
F000
F000
F000
F000
F000
F000
F000
F000
F000
F000
F000
F000
F000
F000
F000
F000
F000
F000
F000
F000
F000
F000
F000
F000
F000
F000
F000
F000
F000
F000
F000
F000
F000
F000
F000
F000
F000
F000
F000
F000
F000
F000
F000
F000
F000
F000
F000
F000
F000
F000
F000
F000
F000
F000
F000
F000
F000
F000
F000
F000
F000
F000
F000
F000
F000
F000
F000
F000
F000
F000
F000
F000
F000
FFFC
FFFC
FFFC
FFFC
ENDCHAR
STARTCHAR 005C
ENCODING 92
SWIDTH 360 0
DWIDTH 31 0
BBX 20 62 5 0
BITMAP
F00000
700000
780000
780000
780000
3C0000
3C0000
3C0000
3C0000
1E0000
1E0000
1E0000
1E0000
0F0000
0F0000
0F0000
070000
078000
078000
078000
03C000
03C000
03C000
03C000
01E000
01E000
01E000
01E000
00F000
00F000
00F000
007000
007800
007800
007800
003C00
003C00
003C00
003C00
001E00
001E00
001E00
001E00
000F00
000F00
000F00
000700
000780
000780
000780
0003C0
0003C0
0003C0
0003C0
0001E0
0001E0
0001E0
0001E0
0000F0
0000F0
0000F0
000070
ENDCHAR
STARTCHAR 005D
ENCODING 93
SWIDTH 394 0
DWIDTH 34 0
BBX 14 95 8 -19
BITMAP
FFFC
FFFC
FFFC
FFFC
003C
003C
003C
003C
003C
003C
003C
003C
003C
003C
003C
003C
003C
003C
003C
003C
003C
003C
003C
003C
003C
003C
003C
003C
003C
003C
003C
003C
003C
003C
003C
003C
003C
003C
003C
003C
003C
003C
003C
003C
003C
003C
003C
003C
003C
003C
003C
003C
003C
003C
003C
003C
003C
003C
003C
003C
003C
003C
003C
003C
003C
003C
003C
003C
003C
003C
003C
003C
003C
003C
003C
003C
003C
003C
003C
003C
003C
003C
003C
003C
003C
003C
003C
003C
003C
003C
003C
FFFC
FFFC
FFFC
FFFC
ENDCHAR
STARTCHAR 005E
ENCODING 94
SWIDTH 661 0
DWIDTH 57 0
BBX 40 22 9 41
BITMAP
0000180000
00003C0000
00007E0000
0000FF0000
0001FF8000
0003E7C000
0007C3E000
000F81F000
001F00F800
003E007C00
007C003E00
00F8001F00
01F0000F80
03E00007C0
07C00003E0
0F800001F0
1F000000F8
3E0000007C
7C0000003E
F80000001F
700000000E
2000000004
ENDCHAR
STARTCHAR 005F
ENCODING 95
SWIDTH 661 0
DWIDTH 57 0
BBX 57 4 0 -8
BITMAP
FFFFFFFFFFFFFF80
FFFFFFFFFFFFFF80
FFFFFFFFFFFFFF80
FFFFFFFFFFFFFF80
ENDCHAR
STARTCHAR 0060
ENCODING 96
SWIDTH 452 0
DWIDTH 39 0
BBX 8 12 15 70
BITMAP
F0
70
78
78
3C
3C
3C
1E
1E
0E
0F
0F
ENDCHAR
STARTCHAR 0061
ENCODING 97
SWIDTH 545 0
DWIDTH 47 0
BBX 39 49 3 -1
BITMAP
0001FFC000
000FFFF800
003FFFFE00
00FFFFFF80
01FE001FC0
03F00007E0
07E00001F0
07C00000F0
0F800000F8
1F00000078
1F0000003C
1E0000003C
3E0000003C
0C0000003C
000000001C
000000001C
000000001C
000000001C
000000001E
00000001FE
000003FFFE
0000FFFFFE
001FFFFFFE
00FFFF801E
03FFC0001E
07FC00001E
0FE000001E
1F8000001E
3E0000001E
3C0000001E
7C0000003E
780000003E
780000003E
700000003E
F00000007E
F00000007E
F00000007E
70000000FE
78000001FE
78000001FE
7C000003DE
3C000007DE
3E00001F9E
1F80007F1E
0FE001FE1E
07FFFFF81E
01FFFFF01E
00FFFF801E
001FFC0000
ENDCHAR
STARTCHAR 0062
ENCODING 98
SWIDTH 580 0
DWIDTH 50 0
BBX 40 63 6 -1
BITMAP
F000000000
F000000000
F000000000
F000000000
F000000000
F000000000
F000000000
F000000000
F000000000
F000000000
F000000000
F000000000
F000000000
F000000000
F000FF8000
F007FFF000
F01FFFFC00
F07FFFFF00
F0FC007F80
F1F0000FC0
F3E00007E0
F7800003E0
F7000001F0
FF000000F8
FE00000078
FC0000007C
FC0000003C
F80000003C
F80000001E
F80000001E
F00000001E
F00000000F
F00000000F
F00000000F
F00000000F
E00000000F
E00000000F
E00000000F
E00000000F
E00000000F
E00000000F
E00000000F
F00000000F
F00000000F
F00000000F
F00000000E
F00000001E
F80000001E
F80000001E
F80000003C
FC0000003C
FC0000007C
FE00000078
EF000000F8
E7000001F0
E7800003E0
E3E00007E0
E1F0001FC0
E0FC007F80
E07FFFFE00
E01FFFFC00
E007FFF000
0000FF8000
ENDCHAR
STARTCHAR 0063
ENCODING 99
SWIDTH 534 0
DWIDTH 46 0
BBX 40 49 3 -1
BITMAP
00007FE000
0007FFFC00
001FFFFF00
007FFFFFC0
00FF000FE0
01F80003F0
03F00000F8
07C000007C
078000003E
0F8000001E
1F0000000F
1E0000000F
1E00000004
3C00000000
3C00000000
3C00000000
7800000000
7800000000
7800000000
7800000000
7800000000
7000000000
F000000000
F000000000
F000000000
F000000000
F000000000
7000000000
7800000000
7800000000
7800000000
7800000000
7800000000
3C00000000
3C00000000
3C00000000
1E00000004
1E0000000F
0F0000001F
0F8000001E
078000003E
07C000007C
03F00000F8
01F80003F0
00FF000FE0
003FFFFFC0
001FFFFF00
0007FFFC00
0000FFE000
ENDCHAR
STARTCHAR 0064
ENCODING 100
SWIDTH 580 0
DWIDTH 50 0
BBX 41 63 3 -1
BITMAP
000000000780
000000000780
000000000780
000000000780
000000000780
000000000780
000000000780
000000000780
000000000780
000000000780
000000000780
000000000780
000000000780
000000000780
0001FF800780
000FFFF00780
001FFFFC0780
007FFFFE0780
00FE003F8780
01F8000FC780
03E00003C780
07C00001E780
07800000F780
0F0000007780
1F0000003F80
1E0000003F80
1E0000001F80
3C0000001F80
3C0000000F80
380000000F80
780000000F80
780000000F80
780000000780
780000000780
700000000780
700000000780
F00000000780
F00000000780
F00000000780
F00000000780
F00000000780
780000000780
780000000780
780000000780
780000000780
780000000F80
780000000F80
3C0000000F80
3C0000000F80
3C0000001F80
1E0000001F80
1E0000003F80
1F0000003F80
0F8000007780
07800000F780
07C00001E780
03E00003C780
01F8000FC780
00FE003F8780
007FFFFE0780
001FFFFC0780
0007FFF00780
0000FF800000
ENDCHAR
STARTCHAR 0065
ENCODING 101
SWIDTH 569 0
DWIDTH 49 0
BBX 43 49 3 -1
BITMAP
00007FE00000
0007FFFC0000
001FFFFF0000
007FFFFFC000
00FF001FE000
01F80003F000
03F00000F800
07C000007C00
078000003E00
0F8000001E00
1F0000001F00
1E0000000F00
3E0000000F80
3C0000000780
3C0000000780
3C00000003C0
7800000003C0
7800000003C0
7800000003C0
7800000001C0
7800000001E0
7000000001E0
FFFFFFFFFFE0
FFFFFFFFFFE0
FFFFFFFFFFE0
FFFFFFFFFFE0
F00000000000
700000000000
780000000000
780000000000
780000000000
780000000000
780000000000
380000000000
3C0000000000
3C0000000300
3E00000003C0
1E0000000780
1F0000000F80
0F0000000F00
078000001E00
07C000007E00
03F00000FC00
01F80003F800
00FF000FF000
003FFFFFC000
001FFFFF0000
0007FFFC0000
00007FE00000
ENDCHAR
STARTCHAR 0066
ENCODING 102
SWIDTH 336 0
DWIDTH 29 0
BBX 25 63 3 0
BITMAP
0001FF80
0007FF80
001FFF80
003FC000
003C0000
00780000
00780000
00F00000
00F00000
00F00000
00F00000
00F00000
00F00000
00F00000
00F00000
00F00000
FFFFFF80
FFFFFF80
FFFFFF80
FFFFFF80
00F00000
00F00000
00F00000
00F00000
00F00000
00F00000
00F00000
00F00000
00F00000
00F00000
00F00000
00F00000
00F00000
00F00000
00F00000
00F00000
00F00000
00F00000
00F00000
00F00000
00F00000
00F00000
00F00000
00F00000
00F00000
00F00000
00F00000
00F00000
00F00000
00F00000
00F00000
00F00000
00F00000
00F00000
00F00000
00F00000
00F00000
00F00000
00F00000
00F00000
00F00000
00F00000
00F00000
ENDCHAR
STARTCHAR 0067
ENCODING 103
SWIDTH 580 0
DWIDTH 50 0
BBX 41 70 3 -22
BITMAP
0001FF800000
000FFFF00780
003FFFFC0780
007FFFFE0780
00FE003F8780
01F8000FC780
03E00003E780
07C00001E780
07800000F780
0F0000007F80
1F0000003F80
1E0000003F80
3E0000001F80
3C0000001F80
3C0000000F80
380000000F80
780000000F80
780000000F80
780000000780
780000000780
700000000780
700000000780
F00000000780
F00000000780
F00000000780
F00000000780
F00000000780
780000000780
780000000780
780000000780
780000000780
780000000F80
780000000F80
3C0000000F80
3C0000000F80
3C0000001F80
1E0000001F80
1E0000003F80
1F0000003F80
0F8000007780
07800000F780
07C00001E780
03E00003C780
01F8000FC780
00FE003F8780
007FFFFE0780
001FFFFC0780
0007FFF00780
0000FF800700
000000000700
000000000700
000000000F00
000000000F00
000000000F00
000000000F00
000000000F00
000000001F00
040000001E00
0C0000001E00
1E0000003E00
1F0000003C00
0F8000007C00
07C00000F800
07E00001F000
03F80007F000
00FF003FE000
007FFFFF8000
001FFFFF0000
0007FFF80000
00003F800000
ENDCHAR
STARTCHAR 0068
ENCODING 104
SWIDTH 569 0
DWIDTH 49 0
BBX 38 62 6 0
BITMAP
E000000000
E000000000
E000000000
E000000000
E000000000
E000000000
E000000000
E000000000
E000000000
E000000000
E000000000
E000000000
E000000000
E000000000
E003FF0000
E01FFFE000
E07FFFF800
E0FFFFFE00
E1F8007F00
E3E0001F80
E7C00007C0
EF800003C0
FF000001E0
FE000001E0
FC000000F0
FC000000F0
F800000078
F800000078
F800000038
F000000038
F00000003C
F00000003C
F00000003C
F00000003C
F00000003C
F00000003C
F00000001C
F00000001C
F00000001C
F00000001C
F00000001C
F00000001C
F00000001C
F00000001C
F00000001C
F00000001C
F00000001C
F00000001C
F00000001C
F00000001C
F00000001C
F00000001C
F00000001C
F00000001C
F00000001C
F00000001C
F00000001C
F00000001C
F00000001C
F00000001C
F00000001C
F00000001C
ENDCHAR
STARTCHAR 0069
ENCODING 105
SWIDTH 197 0
DWIDTH 17 0
BBX 4 62 7 0
BITMAP
F0
F0
F0
F0
F0
F0
00
00
00
00
00
00
00
00
00
F0
F0
F0
F0
F0
F0
F0
F0
F0
F0
F0
F0
F0
F0
F0
F0
F0
F0
F0
F0
F0
F0
F0
F0
F0
F0
F0
F0
F0
F0
F0
F0
F0
F0
F0
F0
F0
F0
F0
F0
F0
F0
F0
F0
F0
F0
F0
ENDCHAR
STARTCHAR 006A
ENCODING 106
SWIDTH 220 0
DWIDTH 19 0
BBX 13 83 -1 -21
BITMAP
0038
0038
0038
0038
0038
0038
0000
0000
0000
0000
0000
0000
0000
0000
0000
0038
0038
0038
0038
0038
0038
0038
0038
0038
0038
0038
0038
0038
0038
0038
0038
0038
0038
0038
0038
0038
0038
0038
0038
0038
0038
0038
0038
0038
0038
0038
0038
0038
0038
0038
0038
0038
0038
0038
0038
0038
0038
0038
0038
0038
0038
0038
0038
0038
0038
0038
0038
0038
0038
0038
0038
0038
0038
0038
0038
0078
0078
00F8
03F0
FFF0
FFE0
FF80
FC00
ENDCHAR
STARTCHAR 006B
ENCODING 107
SWIDTH 464 0
DWIDTH 40 0
BBX 35 62 6 0
BITMAP
F000000000
F000000000
F000000000
F000000000
F000000000
F000000000
F000000000
F000000000
F000000000
F000000000
F000000000
F000000000
F000000000
F000000000
F000000000
F000003F00
F000007E00
F00000FC00
F00001F800
F00003F000
F00007E000
F0000FC000
F0001F8000
F0003F0000
F0007E0000
F000F80000
F001F00000
F003E00000
F007C00000
F00F800000
F01F000000
F03E000000
F07C000000
F0F8000000
F1F0000000
F3E0000000
F7C0000000
FF80000000
FF00000000
FF80000000
F7C0000000
F3F0000000
F1F8000000
F0FC000000
F03E000000
F01F000000
F00FC00000
F007E00000
F003F00000
F001F80000
F000FC0000
F0003F0000
F0001F8000
F0000FC000
F00007E000
F00003F000
F00001F800
F000007E00
F000003F00
F000001F80
F000000FC0
F0000007E0
ENDCHAR
STARTCHAR 006C
ENCODING 108
SWIDTH 197 0
DWIDTH 17 0
BBX 4 62 7 0
BITMAP
F0
F0
F0
F0
F0
F0
F0
F0
F0
F0
F0
F0
F0
F0
F0
F0
F0
F0
F0
F0
F0
F0
F0
F0
F0
F0
F0
F0
F0
F0
F0
F0
F0
F0
F0
F0
F0
F0
F0
F0
F0
F0
F0
F0
F0
F0
F0
F0
F0
F0
F0
F0
F0
F0
F0
F0
F0
F0
F0
F0
F0
F0
ENDCHAR
STARTCHAR 006D
ENCODING 109
SWIDTH 812 0
DWIDTH 70 0
BBX 59 48 6 0
BITMAP
000FF00000FF0000
E07FFE0007FFE000
E1FFFF801FFFF800
E3F83FC07F83FC00
E7C007E0FC007E00
EF8001F1F0001F00
FE0000F9E0000F00
FE00007BC0000780
FC00003F800007C0
F800003F800003C0
F800001F000003C0
F000001F000001C0
F000001F000001E0
F000001F000001E0
F000000E000001E0
F000000E000001E0
F000000E000001E0
F000000E000001E0
F000000E000001E0
F000000E000001E0
F000000E000001E0
F000000E000001E0
F000000E000001E0
F000000E000001E0
F000000E000001E0
F000000E000001E0
F000000E000001E0
F000000E000001E0
F000000E000001E0
F000000E000001E0
F000000E000001E0
F000000E000001E0
F000000E000001E0
F000000E000001E0
F000000E000001E0
F000000E000001E0
F000000E000001E0
F000000E000001E0
F000000E000001E0
F000000E000001E0
F000000E000001E0
F000000E000001E0
F000000E000001E0
F000000E000001E0
F000000E000001E0
F000000E000001E0
F000000E000001E0
F000000E000001E0
ENDCHAR
STARTCHAR 006E
ENCODING 110
SWIDTH 569 0
DWIDTH 49 0
BBX 38 48 6 0
BITMAP
0003FF0000
E01FFFE000
E07FFFF800
E0FFFFFE00
E1F8007F00
E3E0001F80
E7C00007C0
EF800003C0
FF000001E0
FE000001E0
FC000000F0
FC000000F0
F800000078
F800000078
F800000038
F000000038
F00000003C
F00000003C
F00000003C
F00000003C
F00000003C
F00000003C
F00000001C
F00000001C
F00000001C
F00000001C
F00000001C
F00000001C
F00000001C
F00000001C
F00000001C
F00000001C
F00000001C
F00000001C
F00000001C
F00000001C
F00000001C
F00000001C
F00000001C
F00000001C
F00000001C
F00000001C
F00000001C
F00000001C
F00000001C
F00000001C
F00000001C
F00000001C
ENDCHAR
STARTCHAR 006F
ENCODING 111
SWIDTH 569 0
DWIDTH 49 0
BBX 43 49 3 -1
BITMAP
00007FE00000
0007FFFC0000
001FFFFF0000
007FFFFFC000
00FF000FE000
01F80003F000
03F00000F800
07C000007C00
078000003E00
0F8000001E00
1F0000000F00
1E0000000F00
1E0000000780
3C0000000780
3C00000003C0
3C00000003C0
7800000003C0
7800000003C0
7800000001E0
7800000001E0
7000000001E0
7000000001E0
F000000001E0
F000000001E0
F000000001E0
F000000001E0
F000000001E0
7000000001E0
7800000001E0
7800000001E0
7800000001C0
7800000003C0
7800000003C0
3C00000003C0
3C00000003C0
3C0000000780
1E0000000780
1E0000000F00
1F0000000F00
0F8000001E00
078000003E00
07C000007C00
03F00000F800
01F80003F000
00FF000FE000
007FFFFFC000
001FFFFF0000
0007FFFC0000
00007FE00000
ENDCHAR
STARTCHAR 0070
ENCODING 112
SWIDTH 580 0
DWIDTH 50 0
BBX 40 68 6 -20
BITMAP
0000FF8000
E007FFF000
E01FFFFC00
E07FFFFF00
E0FC007F80
E1F0000FC0
E3E00007E0
E7800003E0
E7000001F0
EF000000F8
EE00000078
FC0000007C
FC0000003C
F80000003C
F80000001E
F80000001E
F00000001E
F00000000F
F00000000F
F00000000F
F00000000F
E00000000F
E00000000F
E00000000F
E00000000F
E00000000F
E00000000F
E00000000F
F00000000F
F00000000F
F00000000F
F00000000E
F00000001E
F80000001E
F80000001E
F80000003C
FC0000003C
FC0000007C
FE00000078
FF000000F8
F7000001F0
F7800003E0
F3E00007E0
F1F0001FC0
F0FC007F80
F07FFFFE00
F01FFFFC00
F007FFF000
F000FF8000
F000000000
F000000000
F000000000
F000000000
F000000000
F000000000
F000000000
F000000000
F000000000
F000000000
F000000000
F000000000
F000000000
F000000000
F000000000
F000000000
F000000000
F000000000
F000000000
ENDCHAR
STARTCHAR 0071
ENCODING 113
SWIDTH 580 0
DWIDTH 50 0
BBX 41 68 3 -20
BITMAP
0001FF800000
000FFFF00780
003FFFFC0780
007FFFFE0780
00FE003F8780
01F8000FC780
03E00003E780
07C00001E780
07800000F780
0F0000007F80
1F0000003F80
1E0000003F80
3E0000001F80
3C0000001F80
3C0000000F80
380000000F80
780000000F80
780000000F80
780000000780
780000000780
700000000780
700000000780
F00000000780
F00000000780
F00000000780
F00000000780
F00000000780
780000000780
780000000780
780000000780
780000000780
780000000F80
780000000F80
3C0000000F80
3C0000000F80
3C0000001F80
1E0000001F80
1E0000003F80
1F0000003F80
0F8000007780
07800000F780
07C00001E780
03E00003C780
01F8000FC780
00FE003F8780
007FFFFE0780
001FFFFC0780
0007FFF00780
0000FF800780
000000000780
000000000780
000000000780
000000000780
000000000780
000000000780
000000000780
000000000780
000000000780
000000000780
000000000780
000000000780
000000000780
000000000780
000000000780
000000000780
000000000780
000000000780
000000000780
ENDCHAR
STARTCHAR 0072
ENCODING 114
SWIDTH 336 0
DWIDTH 29 0
BBX 21 47 6 1
BITMAP
E007F8
E03FF8
E0FFF8
E1FFF8
E3F000
E7C000
EF8000
EF0000
FE0000
FC0000
FC0000
F80000
F80000
F80000
F00000
F00000
F00000
F00000
F00000
F00000
F00000
F00000
F00000
F00000
F00000
F00000
F00000
F00000
F00000
F00000
F00000
F00000
F00000
F00000
F00000
F00000
F00000
F00000
F00000
F00000
F00000
F00000
F00000
F00000
F00000
F00000
F00000
ENDCHAR
STARTCHAR 0073
ENCODING 115
SWIDTH 510 0
DWIDTH 44 0
BBX 37 49 4 -1
BITMAP
0007FE0000
007FFFE000
01FFFFF800
03FFFFFE00
0FF000FF00
1F80003F80
1F00000FC0
3E000007E0
3C000003E0
78000001F0
78000000F0
78000000F0
7800000078
7800000078
7800000000
7800000000
3C00000000
3E00000000
1F80000000
0FE0000000
07FC000000
01FFC00000
007FFC0000
000FFF8000
0001FFF000
00001FFC00
000001FF00
0000003F80
0000000FC0
00000003E0
00000001F0
00000000F0
00000000F0
0000000078
0000000078
0000000078
E000000078
F000000078
F0000000F0
F8000000F0
7C000001F0
7E000003E0
3F000007E0
1FC0000FC0
0FF0007F80
03FFFFFF00
01FFFFFC00
007FFFF000
0007FF8000
ENDCHAR
STARTCHAR 0074
ENCODING 116
SWIDTH 383 0
DWIDTH 33 0
BBX 29 61 1 -2
BITMAP
001C0000
001C0000
001C0000
001C0000
001C0000
001C0000
001C0000
001C0000
001C0000
001C0000
001C0000
001C0000
001C0000
FFFFFFF8
FFFFFFF8
FFFFFFF8
FFFFFFF8
001C0000
001C0000
001C0000
001C0000
001C0000
001C0000
001C0000
001C0000
001C0000
001C0000
001C0000
001C0000
001C0000
001C0000
001C0000
001C0000
001C0000
001C0000
001C0000
001C0000
001C0000
001C0000
001C0000
001C0000
001C0000
001C0000
001C0000
001C0000
001C0000
001C0000
001C0000
001C0000
001C0000
001E0000
001E0000
001E0000
000F0000
000F0000
000F8000
0007E000
0003FFF8
0001FFF8
00007FF8
00001FF8
ENDCHAR
STARTCHAR 0075
ENCODING 117
SWIDTH 569 0
DWIDTH 49 0
BBX 38 48 5 -1
BITMAP
F00000001C
F00000001C
F00000001C
F00000001C
F00000001C
F00000001C
F00000001C
F00000001C
F00000001C
F00000001C
F00000001C
F00000001C
F00000001C
F00000001C
F00000001C
F00000001C
F00000001C
F00000001C
F00000001C
F00000001C
F00000001C
F00000001C
F00000001C
F00000001C
F00000001C
F00000001C
F00000001C
F00000001C
F00000001C
F00000003C
F00000003C
700000003C
780000003C
780000003C
780000007C
380000007C
3C000000FC
3C000000FC
1E000001FC
1F000001FC
0F000003DC
07C00007DC
03E0001F9C
01F8007F1C
00FFFFFE1C
007FFFF81C
001FFFE01C
0003FF0000
ENDCHAR
STARTCHAR 0076
ENCODING 118
SWIDTH 476 0
DWIDTH 41 0
BBX 37 47 2 0
BITMAP
F000000078
F000000078
7000000078
78000000F0
78000000F0
38000000E0
3C000001E0
3C000001E0
1E000001C0
1E000003C0
1E000003C0
0F00000780
0F00000780
0700000780
0780000F00
0780000F00
0380000F00
03C0001E00
03C0001E00
01E0001C00
01E0003C00
01E0003C00
00F0007800
00F0007800
00F0007800
007800F000
007800F000
003800F000
003C01E000
003C01E000
001E01C000
001E03C000
001E03C000
000F038000
000F078000
000F078000
00078F0000
00078F0000
00038F0000
0003DE0000
0003DE0000
0001FE0000
0001FC0000
0001FC0000
0000F80000
0000F80000
0000F80000
ENDCHAR
STARTCHAR 0077
ENCODING 119
SWIDTH 743 0
DWIDTH 64 0
BBX 60 47 2 0
BITMAP
F000000F000000F0
F000000F000000F0
F000001F800000F0
7800001F800000E0
7800001F800001E0
7800003FC00001E0
3800003FC00001C0
3C00003FC00003C0
3C000039E00003C0
1C000079E0000380
1E000079E0000780
1E000070E0000780
1E0000F0F0000780
0F0000F0F0000700
0F0000F070000F00
0F0001E078000F00
070001E078000E00
078001E078001E00
078001C03C001E00
038003C03C001C00
03C003C03C003C00
03C003801C003C00
01C007801E003C00
01E007801E007800
01E007800E007800
01E00F000F007800
00F00F000F007000
00F00F000F00F000
00F00E000780F000
00701E000780E000
00781E000781E000
00781C000381E000
00383C0003C1E000
003C3C0003C3C000
003C380001C3C000
003C780001E3C000
001E780001E38000
001E780001E78000
001E700000F78000
000EF00000F70000
000FF00000FF0000
000FE000007F0000
0007E000007F0000
0007E000007E0000
0007C000003E0000
0007C000003E0000
0003C000003C0000
ENDCHAR
STARTCHAR 0078
ENCODING 120
SWIDTH 510 0
DWIDTH 44 0
BBX 42 47 1 0
BITMAP
780000000780
7C0000000F00
3E0000001F00
1F0000003E00
0F0000003C00
078000007800
07C00000F000
03E00001F000
01E00003E000
00F00003C000
007800078000
007C000F0000
003E001F0000
001E003E0000
000F003C0000
000780780000
0007C0F00000
0003E1F00000
0001E1E00000
0000F3C00000
00007F800000
00007F000000
00003F000000
00001E000000
00003F000000
00007F800000
0000FFC00000
0001F3C00000
0001E1E00000
0003C0F00000
000780F80000
000F807C0000
001F003C0000
001E001E0000
003C000F0000
0078000F8000
00F80007C000
01F00003C000
01E00001E000
03C00000F000
07C00000F800
0F8000007C00
1F0000003C00
1E0000001E00
3C0000001F00
7C0000000F80
F800000007C0
ENDCHAR
STARTCHAR 0079
ENCODING 121
SWIDTH 510 0
DWIDTH 44 0
BBX 39 67 2 -20
BITMAP
F00000001E
F00000001E
780000001E
780000003C
3C0000003C
3C00000038
3C00000078
1E00000078
1E000000F0
0F000000F0
0F000000F0
0F000001E0
07800001E0
07800001E0
03C00003C0
03C00003C0
03C0000380
01E0000780
01E0000780
00F0000F00
00F0000F00
00F0000F00
0078001E00
0078001E00
003C001E00
003C003C00
003C003C00
001E003800
001E007800
000F007800
000F00F000
000700F000
000780F000
000781E000
0003C1E000
0003C1E000
0001C3C000
0001E3C000
0001E38000
0000F78000
0000F78000
00007F0000
00007F0000
00007F0000
00003E0000
00003E0000
00001E0000
00003C0000
00003C0000
0000380000
0000780000
0000780000
0000F00000
0000F00000
0000F00000
0001E00000
0001E00000
0001E00000
0003C00000
0003C00000
0007800000
0007800000
0007800000
000F000000
000F000000
000F000000
001E000000
ENDCHAR
STARTCHAR 007A
ENCODING 122
SWIDTH 522 0
DWIDTH 45 0
BBX 40 47 2 0
BITMAP
3FFFFFFFFF
3FFFFFFFFF
3FFFFFFFFE
3FFFFFFFFC
0000000078
00000000F8
00000001F0
00000003E0
00000003C0
0000000780
0000000F80
0000001F00
0000003E00
0000003C00
0000007800
000000F800
000001F000
000003E000
000003C000
0000078000
00000F8000
00001F0000
00003E0000
00003C0000
0000780000
0000F80000
0001F00000
0003E00000
0003C00000
0007800000
000F800000
001F000000
003E000000
007C000000
0078000000
00F8000000
01F0000000
03E0000000
07C0000000
0780000000
0F80000000
1F00000000
3E00000000
7FFFFFFFFC
7FFFFFFFFC
FFFFFFFFFC
FFFFFFFFFC
ENDCHAR
STARTCHAR 007B
ENCODING 123
SWIDTH 394 0
DWIDTH 34 0
BBX 19 95 12 -19
BITMAP
001FE0
007FE0
00FFE0
01FFE0
03E000
03C000
078000
078000
070000
070000
070000
070000
070000
070000
070000
070000
070000
070000
070000
070000
070000
070000
070000
070000
070000
070000
070000
070000
070000
070000
070000
070000
070000
070000
070000
070000
070000
070000
070000
070000
0F0000
0F0000
1E0000
3E0000
3C0000
780000
F80000
F00000
F80000
780000
3C0000
3E0000
1E0000
0F0000
0F0000
070000
070000
070000
070000
070000
070000
070000
070000
070000
070000
070000
070000
070000
070000
070000
070000
070000
070000
070000
070000
070000
070000
070000
070000
070000
070000
070000
070000
070000
070000
070000
070000
078000
078000
03C000
03E000
01FFE0
00FFE0
007FE0
001FE0
ENDCHAR
STARTCHAR 007C
ENCODING 124
SWIDTH 220 0
DWIDTH 19 0
BBX 3 62 8 0
BITMAP
E0
E0
E0
E0
E0
E0
E0
E0
E0
E0
E0
E0
E0
E0
E0
E0
E0
E0
E0
E0
E0
E0
E0
E0
E0
E0
E0
E0
E0
E0
E0
E0
E0
E0
E0
E0
E0
E0
E0
E0
E0
E0
E0
E0
E0
E0
E0
E0
E0
E0
E0
E0
E0
E0
E0
E0
E0
E0
E0
E0
E0
E0
ENDCHAR
STARTCHAR 007D
ENCODING 125
SWIDTH 394 0
DWIDTH 34 0
BBX 18 95 4 -19
BITMAP
FE0000
FF8000
FFE000
FFF000
01F000
007800
007800
003800
003C00
003C00
003C00
003C00
003C00
003C00
003C00
003C00
003C00
003C00
003C00
003C00
003C00
003C00
003C00
003C00
003C00
003C00
003C00
003C00
003C00
003C00
003C00
003C00
003C00
003C00
003C00
003C00
003C00
003C00
003C00
003C00
003C00
003C00
001E00
001F00
000F80
000780
0003C0
0003C0
0003C0
000780
000F80
001F00
001E00
003C00
003C00
003C00
003C00
003C00
003C00
003C00
003C00
003C00
003C00
003C00
003C00
003C00
003C00
003C00
003C00
003C00
003C00
003C00
003C00
003C00
003C00
003C00
003C00
003C00
003C00
003C00
003C00
003C00
003C00
003C00
003C00
003C00
003C00
003800
007800
007800
01F000
FFF000
FFE000
FFC000
FE0000
ENDCHAR
STARTCHAR 007E
ENCODING 126
SWIDTH 627 0
DWIDTH 54 0
BBX 34 11 10 22
BITMAP
03E0000000
0FFC000780
3FFF0007C0
3FFFC007C0
7FFFF00780
7C1FFC0F80
F807FFFF80
F801FFFF00
F8007FFF00
F8001FFC00
000003F800
ENDCHAR
STARTCHAR 00A0
ENCODING 160
SWIDTH 197 0
DWIDTH 17 0
BBX 0 0 0 0
BITMAP
ENDCHAR
STARTCHAR 00A1
ENCODING 161
SWIDTH 278 0
DWIDTH 24 0
BBX 4 62 10 -15
BITMAP
F0
F0
F0
F0
F0
F0
00
00
00
00
00
00
00
00
00
00
F0
F0
F0
F0
F0
F0
F0
F0
F0
F0
F0
F0
F0
F0
F0
F0
F0
F0
F0
F0
F0
F0
F0
F0
F0
F0
F0
F0
F0
F0
F0
F0
F0
F0
F0
F0
F0
F0
F0
F0
F0
F0
F0
F0
F0
F0
ENDCHAR
STARTCHAR 00A2
ENCODING 162
SWIDTH 534 0
DWIDTH 46 0
BBX 40 64 3 -2
BITMAP
00000F0000
00000F0000
00000F0000
00000F0000
00000F0000
00000F0000
00000F0000
00000F0000
0000FFE000
0007FFFC00
001FFFFF00
007FFFFFC0
00FF000FE0
01F80003F0
03F00000F8
07C000007C
078000003E
0F8000001F
1F0000000F
1E0000000F
1E00000004
3C00000000
3C00000000
3C00000000
7800000000
7800000000
7800000000
7800000000
7800000000
7000000000
F000000000
F000000000
F000000000
F000000000
7000000000
7000000000
7800000000
7800000000
7800000000
7800000000
7800000000
3C00000000
3C00000000
3E00000000
1E0000000C
1E0000000F
0F0000001F
0F8000003E
07C000003C
03E00000FC
01F00001F8
00FC0007F0
007F803FE0
003FFFFF80
000FFFFE00
0003FFF800
00001F0000
00000F0000
00000F0000
00000F0000
00000F0000
00000F0000
00000F0000
00000F0000
ENDCHAR
STARTCHAR 00A3
ENCODING 163
SWIDTH 569 0
DWIDTH 49 0
BBX 43 63 3 0
BITMAP
000001FE0000
00000FFFC000
00001FFFF000
00007FFFF800
0000FE00FC00
0001F8003E00
0001E0001E00
0003C0000F00
0003C0000780
000780000780
0007800003C0
0007000003C0
000F000001E0
000F000001E0
000F000000E0
000F000000C0
000F00000000
000F00000000
000F00000000
000F00000000
000F00000000
000F00000000
000F00000000
000F00000000
000F00000000
000F00000000
000F00000000
000F00000000
000F00000000
FFFFFFFF8000
FFFFFFFF8000
FFFFFFFF8000
FFFFFFFF8000
000F00000000
000F00000000
000F00000000
000F00000000
000F00000000
000F00000000
000F00000000
000F00000000
000F00000000
000F00000000
000F00000000
000F00000000
000F00000000
000F00000000
000F00000000
000F00000000
000F00000000
000F00000000
000F00000000
000F00000000
000F00000000
000F00000000
000F00000000
001F00000000
003F00000000
007F00000000
FFFFFFFFFFC0
FFFFFFFFFFC0
FFFFFFFFFFC0
FFFFFFFFFFC0
ENDCHAR
STARTCHAR 00A4
ENCODING 164
SWIDTH 627 0
DWIDTH 54 0
BBX 48 48 3 7
BITMAP
200000000004
70000180000E
F8007FFE001F
7C03FFFF803E
3E0FFFFFE07C
1F1FF00FF8F8
0FFF0001FDF0
07FC00007FE0
03F800001FC0
03F000000F80
03C0000007C0
07C0000003E0
0F80000001E0
0F00000000F0
1E00000000F0
1E0000000078
3C0000000078
3C0000000038
3C000000003C
38000000003C
78000000003C
78000000001C
78000000001C
78000000001C
78000000001C
78000000001C
78000000001C
78000000003C
38000000003C
3C000000003C
3C0000000038
3C0000000078
1E0000000078
1E00000000F0
0F00000000F0
0F80000001E0
07C0000003E0
03E0000007C0
03F000000F80
03F800001FC0
07FC00007FE0
0FFF0001FDF0
1F1FE00FF8F8
3E0FFFFFE07C
7C03FFFF803E
F8007FFE001F
F00003A0000E
600000000004
ENDCHAR
STARTCHAR 00A5
ENCODING 165
SWIDTH 522 0
DWIDTH 45 0
BBX 44 62 0 0
BITMAP
F000000000F0
7800000000F0
7C00000001E0
3C00000001E0
1E00000003C0
1E00000007C0
0F0000000780
0F0000000F00
078000000F00
07C000001E00
03C000001E00
01E000003C00
01E000007C00
00F000007800
00F80000F000
00780000F000
007C0001E000
003C0003E000
001E0003C000
001E00078000
000F00078000
000F800F0000
0007800F0000
0003C01E0000
0003C03E0000
0001E03C0000
0001E0780000
0000F0780000
0000F8F00000
000078F00000
00003DE00000
00003FE00000
00001FC00000
00001F800000
00000F800000
00000F000000
01FFFFFFFC00
01FFFFFFFC00
01FFFFFFFC00
01FFFFFFFC00
000007000000
000007000000
000007000000
000007000000
000007000000
000007000000
000007000000
000007000000
01FFFFFFFC00
01FFFFFFFC00
01FFFFFFFC00
01FFFFFFFC00
000007000000
000007000000
000007000000
000007000000
000007000000
000007000000
000007000000
000007000000
000007000000
000007000000
ENDCHAR
STARTCHAR 00A6
ENCODING 166
SWIDTH 220 0
DWIDTH 19 0
BBX 3 73 8 -11
BITMAP
E0
E0
E0
E0
E0
E0
E0
E0
E0
E0
E0
E0
E0
E0
E0
E0
E0
E0
E0
E0
E0
E0
E0
E0
E0
E0
E0
E0
E0
E0
00
00
00
00
00
00
00
00
00
00
00
00
00
E0
E0
E0
E0
E0
E0
E0
E0
E0
E0
E0
E0
E0
E0
E0
E0
E0
E0
E0
E0
E0
E0
E0
E0
E0
E0
E0
E0
E0
E0
ENDCHAR
STARTCHAR 00A7
ENCODING 167
SWIDTH 510 0
DWIDTH 44 0
BBX 38 71 4 -14
BITMAP
0000E00000
001FFF0000
00FFFFE000
01FFFFF800
03F807FC00
0FE000FE00
0F80003F00
1F00001F80
1E00000780
3C000007C0
3C000003C0
3C000003E0
38000001E0
38000001E0
3C00000100
3C00000000
3E00000000
1F00000000
1F80000000
0FE0000000
07FC000000
01FF800000
007FF80000
007FFF8000
03FDFFF000
07E03FFC00
1F8003FF00
3F00007FC0
3C00000FE0
7C000003F0
78000000F0
F0000000F8
F000000078
F000000078
F00000003C
F00000003C
F00000003C
F800000038
7800000078
7C00000078
3F000000F8
1FC00000F0
0FF80001F0
03FF8003E0
00FFF80FC0
001FFFFF80
0001FFFF00
00003FFC00
000003FE00
0000007F80
0000001FC0
00000007C0
00000003E0
00000001E0
00000001F0
00000000F0
00000000F0
00000000F0
38000000F0
78000000F0
3C000001F0
3E000001E0
1E000003E0
1F000003C0
0FC00007C0
07E0001F80
03FC007F00
01FFFFFE00
007FFFFC00
001FFFF000
0003FF0000
ENDCHAR
STARTCHAR 00A8
ENCODING 168
SWIDTH 476 0
DWIDTH 41 0
BBX 21 5 10 72
BITMAP
FC00F8
FC00F8
FC00F8
FC00F8
FC00F8
ENDCHAR
STARTCHAR 00A9
ENCODING 169
SWIDTH 743 0
DWIDTH 64 0
BBX 59 60 3 0
BITMAP
0000007F80000000
000007FFFC000000
00003FFFFF000000
0000FFFFFFE00000
0003FF003FF00000
000FF80003FC0000
001FC00000FE0000
003F0000003F0000
007E0000001FC000
00F800000007E000
01F000000003E000
03E000000001F000
07C0007FC000F800
078003FFF8007C00
0F000FFFFC003C00
1F001FFFFF003E00
1E003F803F801E00
3E007E000FC00F00
3C007C0007C00F00
3C00F80003E00780
7801F00001E00780
7801E00000C00780
7001E000000003C0
F003C000000003C0
F003C000000003C0
F003C000000003C0
F003C000000001E0
E003C000000001E0
E003C000000001E0
E0038000000001E0
E0038000000001E0
E003C000000001E0
E003C000000001E0
F003C000000001E0
F003C000000001E0
F003C000000003C0
F003C000000003C0
F003E000000003C0
7801E000000003C0
7801F00001E00780
7800F00001E00780
3C00F80003E00F80
3C007C0007C00F00
1E003E001F801F00
1E001FC07F001E00
0F000FFFFE003E00
0F8007FFFC007C00
07C001FFE000F800
03E000040000F800
03F000000001F000
01F800000007E000
00FC0000000FC000
007F0000003F8000
001FC000007F0000
000FF00003FE0000
0007FE001FF80000
0001FFFFFFE00000
00007FFFFF800000
00000FFFFE000000
000000FFE0000000
ENDCHAR
STARTCHAR 00AA
ENCODING 170
SWIDTH 313 0
DWIDTH 27 0
BBX 20 25 3 23
BITMAP
01FE00
07FF80
0FFFC0
1FFFE0
3E01F0
3C00F0
7800F0
0800F0
000070
0003F0
00FFF0
0FFFF0
1FFF70
3FC070
7C00F0
7800F0
7000F0
F000F0
F001F0
7803F0
7C07F0
7FFF70
3FFE70
0FFC70
03E000
ENDCHAR
STARTCHAR 00AB
ENCODING 171
SWIDTH 499 0
DWIDTH 43 0
BBX 30 37 7 5
BITMAP
00020010
00070038
0007803C
000F0078
001E00F0
003E01E0
007C03E0
007803C0
00F00780
01E00F00
03E01E00
07C03E00
07803C00
0F007800
1E00F000
3E01E000
7C03E000
7803C000
F0078000
7803C000
7C03E000
3E01F000
1E00F000
0F007800
07803C00
07C03E00
03E01F00
01E00F00
00F00780
007803C0
007C03E0
003E01E0
001E00F0
000F0078
0007803C
00078038
00020010
ENDCHAR
STARTCHAR 00AC
ENCODING 172
SWIDTH 603 0
DWIDTH 52 0
BBX 42 15 5 17
BITMAP
FFFFFFFFFFC0
FFFFFFFFFFC0
FFFFFFFFFFC0
FFFFFFFFFFC0
0000000003C0
0000000003C0
0000000003C0
0000000003C0
0000000003C0
0000000003C0
0000000003C0
0000000003C0
0000000003C0
0000000003C0
0000000003C0
ENDCHAR
STARTCHAR 00AD
ENCODING 173
SWIDTH 418 0
DWIDTH 36 0
BBX 26 4 5 25
BITMAP
FFFFFFC0
FFFFFFC0
FFFFFFC0
FFFFFFC0
ENDCHAR
STARTCHAR 00AE
ENCODING 174
SWIDTH 603 0
DWIDTH 52 0
BBX 40 41 6 25
BITMAP
0000180000
0007FFE000
001FFFF800
007FFFFE00
00FF00FF00
01F8001F80
03E00007C0
07C00003E0
0F800001F0
1F000000F8
1E07FF007C
3C07FFC03C
3C07FFE03C
780701F01E
780700F01E
700700700E
F00700700F
F00700700F
F00700700F
F00700F00F
F007FFE00F
F007FFC00F
F007FF800F
F00703800F
F00703C00F
700701C00E
780701E01E
780700E01E
3C0700F03C
3C0700F03C
1E00000078
1F000000F8
0F800001F0
07C00003E0
03E00007C0
01F8001F80
00FF00FF00
007FFFFE00
001FFFF800
0007FFE000
00001A0000
ENDCHAR
STARTCHAR 00AF
ENCODING 175
SWIDTH 476 0
DWIDTH 41 0
BBX 21 4 10 72
BITMAP
FFFFF8
FFFFF8
FFFFF8
FFFFF8
ENDCHAR
STARTCHAR 00B0
ENCODING 176
SWIDTH 452 0
DWIDTH 39 0
BBX 31 31 3 32
BITMAP
001FE000
007FFC00
01FFFE00
07FFFF80
0FE01FC0
1F8007E0
1E0001F0
3C0000F0
7C000078
78000078
F000003C
F000003C
F000001C
E000001C
E000001E
E000001E
E000001E
E000001C
F000001C
F000003C
F000003C
78000078
7C000078
3C0000F0
3E0001F0
1F8007E0
0FE01FC0
07FFFF80
01FFFF00
00FFFC00
001FE000
ENDCHAR
STARTCHAR 00B1
ENCODING 177
SWIDTH 603 0
DWIDTH 52 0
BBX 42 40 5 7
BITMAP
00001E000000
00001E000000
00001E000000
00001E000000
00001E000000
00001E000000
00001E000000
00001E000000
00001E000000
00001E000000
00001E000000
00001E000000
FFFFFFFFFFC0
FFFFFFFFFFC0
FFFFFFFFFFC0
FFFFFFFFFFC0
00001E000000
00001E000000
00001E000000
00001E000000
00001E000000
00001E000000
00001E000000
00001E000000
00001E000000
00001E000000
00001E000000
00001E000000
000000000000
000000000000
000000000000
000000000000
000000000000
000000000000
000000000000
000000000000
FFFFFFFFFFC0
FFFFFFFFFFC0
FFFFFFFFFFC0
FFFFFFFFFFC0
ENDCHAR
STARTCHAR 00B2
ENCODING 178
SWIDTH 394 0
DWIDTH 34 0
BBX 25 39 4 24
BITMAP
007F8000
01FFE000
07FFF800
0FF3FC00
1F807E00
3E001E00
3C000F00
7C000F80
78000780
78000780
70000380
70000380
00000380
00000380
00000380
00000780
00000780
00000F00
00000F00
00001E00
00003E00
00007C00
0001F800
0003F000
0007C000
000F8000
001F0000
003E0000
007C0000
00F80000
01F00000
03E00000
0FC00000
1F800000
3E000000
7C000000
FFFFFF80
FFFFFF80
FFFFFF80
ENDCHAR
STARTCHAR 00B3
ENCODING 179
SWIDTH 383 0
DWIDTH 33 0
BBX 24 39 4 23
BITMAP
7FFFFE
7FFFFE
7FFFFE
00003E
00007C
0000F8
0001F0
0003E0
0007C0
000F00
001E00
007C00
00F800
01F000
03FE00
07FFC0
07FFE0
0383F0
0000F8
00007C
00003C
00001E
00001E
00000E
00000E
00000F
00000F
00000F
00000E
00000E
60001E
F0001E
F0003C
78003C
7C00F8
3F03F8
1FFFF0
0FFFC0
03FF00
ENDCHAR
STARTCHAR 00B4
ENCODING 180
SWIDTH 452 0
DWIDTH 39 0
BBX 8 12 16 70
BITMAP
0F
0F
0E
1E
1E
3C
3C
3C
78
78
70
F0
ENDCHAR
STARTCHAR 00B5
ENCODING 181
SWIDTH 580 0
DWIDTH 50 0
BBX 38 68 6 -21
BITMAP
F00000001C
F00000001C
F00000001C
F00000001C
F00000001C
F00000001C
F00000001C
F00000001C
F00000001C
F00000001C
F00000001C
F00000001C
F00000001C
F00000001C
F00000001C
F00000001C
F00000001C
F00000001C
F00000001C
F00000001C
F00000001C
F00000001C
F00000001C
F00000001C
F00000001C
F00000001C
F00000001C
F00000001C
F00000003C
F00000003C
F00000003C
F00000003C
F00000003C
F80000003C
F80000007C
F80000007C
FC000000FC
FC000000FC
FE000001FC
FE000003FC
EF000003DC
E780000F9C
E7E0001F9C
E3F8007F1C
E0FFFFFC1C
E07FFFF81C
E01FFFE01C
E003FF0000
E000000000
E000000000
E000000000
E000000000
E000000000
E000000000
E000000000
E000000000
E000000000
E000000000
E000000000
E000000000
E000000000
E000000000
E000000000
E000000000
E000000000
E000000000
E000000000
E000000000
ENDCHAR
STARTCHAR 00B6
ENCODING 182
SWIDTH 580 0
DWIDTH 50 0
BBX 34 74 8 -12
BITMAP
0003FFC1C0
003FFFC1C0
00FFFFC1C0
01FFFFC1C0
03FFFFC1C0
07FFFFC1C0
0FFFFFC1C0
1FFFFFC1C0
3FFFFFC1C0
3FFFFFC1C0
7FFFFFC1C0
7FFFFFC1C0
7FFFFFC1C0
FFFFFFC1C0
FFFFFFC1C0
FFFFFFC1C0
FFFFFFC1C0
FFFFFFC1C0
FFFFFFC1C0
FFFFFFC1C0
FFFFFFC1C0
FFFFFFC1C0
FFFFFFC1C0
FFFFFFC1C0
7FFFFFC1C0
7FFFFFC1C0
7FFFFFC1C0
3FFFFFC1C0
3FFFFFC1C0
1FFFFFC1C0
0FFFFFC1C0
0FFFFFC1C0
07FFFFC1C0
01FFFFC1C0
00FFFFC1C0
003FFFC1C0
0007FFC1C0
000003C1C0
000003C1C0
000003C1C0
000003C1C0
000003C1C0
000003C1C0
000003C1C0
000003C1C0
000003C1C0
000003C1C0
000003C1C0
000003C1C0
000003C1C0
000003C1C0
000003C1C0
000003C1C0
000003C1C0
000003C1C0
000003C1C0
000003C1C0
000003C1C0
000003C1C0
000003C1C0
000003C1C0
000003C1C0
000003C1C0
000003C1C0
000003C1C0
000003C1C0
000003C1C0
000003C1C0
000003C1C0
000003C1C0
000003C1C0
000003C1C0
000003C1C0
000003C1C0
ENDCHAR
STARTCHAR 00B7
ENCODING 183
SWIDTH 197 0
DWIDTH 17 0
BBX 7 7 5 24
BITMAP
38
7C
FE
FE
FE
7C
38
ENDCHAR
STARTCHAR 00B8
ENCODING 184
SWIDTH 383 0
DWIDTH 33 0
BBX 12 22 11 -21
BITMAP
0380
0780
0780
0700
0F00
0E00
0E00
1F00
1F80
1FC0
03E0
01F0
00F0
00F0
00F0
00F0
01F0
C3E0
FFE0
FFC0
FF00
1800
ENDCHAR
STARTCHAR 00B9
ENCODING 185
SWIDTH 301 0
DWIDTH 26 0
BBX 11 39 5 23
BITMAP
01E0
07E0
1FE0
3FE0
FFE0
F9E0
E1E0
C1E0
01E0
01E0
01E0
01E0
01E0
01E0
01E0
01E0
01E0
01E0
01E0
01E0
01E0
01E0
01E0
01E0
01E0
01E0
01E0
01E0
01E0
01E0
01E0
01E0
01E0
01E0
01E0
01E0
01E0
01E0
01E0
ENDCHAR
STARTCHAR 00BA
ENCODING 186
SWIDTH 336 0
DWIDTH 29 0
BBX 23 25 3 23
BITMAP
00FE00
03FF80
0FFFE0
1FFFF0
1F01F8
3E0078
7C007C
78003C
78003C
78003E
78001E
F8001E
F8001E
F8001E
78001E
78003E
78003C
7C003C
3C007C
3E00F8
1F83F0
0FFFF0
07FFE0
03FF80
003C00
ENDCHAR
STARTCHAR 00BB
ENCODING 187
SWIDTH 499 0
DWIDTH 43 0
BBX 30 37 6 5
BITMAP
20010000
70038000
F807C000
7803C000
3C01E000
1E00F000
1F00F800
0F807C00
07803C00
03C01E00
01E00F00
00F00F80
00F807C0
007803C0
003C01E0
001E00F0
000F00F8
000F807C
0007803C
000F807C
001F00F8
001E00F0
003C01E0
007803C0
00F807C0
00F00F80
01E00F00
03C01E00
07803C00
0F807C00
0F00F800
1E00F000
3C01E000
7803C000
F807C000
70038000
20010000
ENDCHAR
STARTCHAR 00BC
ENCODING 188
SWIDTH 929 0
DWIDTH 80 0
BBX 65 62 5 0
BITMAP
01E000000000100000
07E000000000380000
1FE0000000007C0000
3FE000000000FC0000
FFE000000000F80000
F9E000000001F00000
E1E000000003E00000
C1E000000007C00000
01E000000007C00000
01E00000000F800000
01E00000001F000000
01E00000003E000000
01E00000007C000000
01E00000007C000000
01E0000000F8000000
01E0000001F0000000
01E0000003E0000000
01E0000007C0000000
01E0000007C0000000
01E000000F80000000
01E000001F00000000
01E000003E00000000
01E000007E00000000
01E000007C000F0000
01E00000F8001E0000
01E00001F0001E0000
01E00003E0003C0000
01E00007E0003C0000
01E00007C000780000
01E0000F8000780000
01E0001F0000F00000
01E0003E0000F00000
01E0007E0001E00000
01E0007C0001E00000
01E000F80001C00000
01E001F00003C00000
01E003E00003C00000
01E003E00007800000
01E007C00007800000
00000F80000F007800
00001F00000F007800
00003F00001E007800
00003E00001E007800
00007C00003C007800
0000F800003C007800
0001F0000078007800
0003F0000078007800
0003E00000F0007800
0007C00000F0007800
000F800001E0007800
001F000001E0007800
003F000001FFFFFF80
003E000001FFFFFF80
007C000001FFFFFF80
00F800000000007800
01F000000000007800
03F000000000007800
03E000000000007800
07C000000000007800
0F8000000000007800
070000000000007800
010000000000007800
ENDCHAR
STARTCHAR 00BD
ENCODING 189
SWIDTH 882 0
DWIDTH 76 0
BBX 67 62 5 0
BITMAP
01E000000000100000
07E000000000380000
1FE0000000007C0000
3FE000000000FC0000
FFE000000000F80000
F9E000000001F00000
E1E000000003E00000
C1E000000007C00000
01E000000007C00000
01E00000000F800000
01E00000001F000000
01E00000003E000000
01E00000007C000000
01E00000007C000000
01E0000000F8000000
01E0000001F0000000
01E0000003E0000000
01E0000007E0000000
01E0000007C0000000
01E000000F80000000
01E000001F00000000
01E000003E00000000
01E000007E00000000
01E000007C007FE000
01E00000F801FFF800
01E00001F003FFFC00
01E00003E007E07E00
01E00007E00F801F00
01E00007C01F000F80
01E0000F801E000780
01E0001F003C0003C0
01E0003E003C0003C0
01E0007E003C0001C0
01E0007C00380001C0
01E000F800380001E0
01E001F000000001E0
01E003E000000001C0
01E007E000000001C0
01E007C000000003C0
00000F8000000003C0
00001F000000000780
00003F000000000F80
00003E000000001F00
00007C000000003E00
0000F8000000007C00
0001F000000000F800
0003F000000001F000
0003E000000003E000
0007C000000007C000
000F800000000F8000
001F000000001F0000
003F000000007E0000
003E00000000FC0000
007C00000001F00000
00F800000003E00000
01F000000007C00000
03F00000000F800000
03E00000001F000000
07C00000003E000000
0F800000007FFFFFE0
07000000007FFFFFE0
01000000007FFFFFE0
ENDCHAR
STARTCHAR 00BE
ENCODING 190
SWIDTH 952 0
DWIDTH 82 0
BBX 72 62 4 0
BITMAP
7FFFFE000000002000
7FFFFE000000007000
7FFFFE000000007C00
00003E00000000F800
00007C00000001F000
0000F800000003E000
0001F000000007E000
0003E000000007C000
0007C00000000F8000
000F000000001F0000
001E000000003E0000
007C000000007E0000
00F8000000007C0000
01F000000000F80000
03FE00000001F00000
07FFC0000003E00000
07FFE0000007E00000
0383F0000007C00000
0000F800000F800000
00007C00001F000000
00003C00003E000000
00001E00003E000000
00001E00007C000000
00000E0000F8001E00
00000E0001F0003C00
00000F0003F0003C00
00000F0003E0003800
00000F0007C0007800
00000E000F80007800
00000E001F0000F000
60001E003F0000F000
F0001E003E0001E000
F0003C007C0001E000
78003C00F80003C000
7C00F801F00003C000
3F03F803F000078000
1FFFF003E000078000
0FFFC007C0000F0000
03FF000F80000F0000
0000001F00001E0070
0000003F00001E0070
0000003E00003C0070
0000007C00003C0070
000000F80000380070
000001F80000780070
000003F00000780070
000003E00000F00070
000007C00000F00070
00000F800001E00070
00001F800001E00070
00003F000003C00070
00003E000003FFFFFF
00007C000003FFFFFF
0000F8000003FFFFFF
0001F8000000000070
0001F0000000000070
0003E0000000000070
0007C0000000000070
000F80000000000070
000F80000000000070
000700000000000070
000200000000000070
ENDCHAR
STARTCHAR 00BF
ENCODING 191
SWIDTH 499 0
DWIDTH 43 0
BBX 35 64 4 -17
BITMAP
0000780000
0000780000
0000780000
0000780000
0000780000
0000780000
0000000000
0000000000
0000000000
0000000000
0000000000
0000000000
0000000000
0000000000
0000000000
0000000000
0000000000
0000780000
0000780000
0000780000
0000780000
0000780000
0000780000
0000700000
0000F00000
0000F00000
0000F00000
0001E00000
0003E00000
0007C00000
000F800000
001F800000
003E000000
00FC000000
01F8000000
03F0000000
07C0000000
0F80000000
1F00000000
3E00000000
3C00000000
7800000000
7800000000
7800000000
7000000000
F000000000
F000000000
F000000000
F0000001E0
F0000001E0
F0000001E0
78000001E0
78000001C0
78000003C0
3C000003C0
3E00000780
1F00000F80
1F80001F00
0FC0007E00
07F803FC00
01FFFFF800
00FFFFE000
003FFF8000
0000E00000
ENDCHAR
STARTCHAR 00C0
ENCODING 192
SWIDTH 603 0
DWIDTH 52 0
BBX 49 82 2 0
BITMAP
00003C00000000
00003C00000000
00001C00000000
00001E00000000
00001E00000000
00000F00000000
00000F00000000
00000F00000000
00000780000000
00000780000000
00000780000000
000003C0000000
00000000000000
00000000000000
00000000000000
00000000000000
00000000000000
00000000000000
00000000000000
00000000000000
000003C0000000
000003E0000000
000007E0000000
000007E0000000
000007F0000000
00000FF0000000
00000F78000000
00000E78000000
00001E78000000
00001E3C000000
00003C3C000000
00003C1C000000
00003C1E000000
0000781E000000
0000780E000000
0000780F000000
0000F00F000000
0000F007800000
0000E007800000
0001E007800000
0001E003C00000
0003C003C00000
0003C003C00000
0003C001E00000
00078001E00000
00078000E00000
00078000F00000
000F0000F00000
000F0000780000
000E0000780000
001E0000780000
001E00003C0000
003C00003C0000
003C00003C0000
003C00001E0000
007800001E0000
007800000E0000
007800000F0000
00F000000F0000
00F00000078000
00E00000078000
01E00000078000
01E0000003C000
03FFFFFFFFC000
03FFFFFFFFC000
03FFFFFFFFE000
0780000001E000
0780000000E000
0780000000F000
0F00000000F000
0F000000007800
0E000000007800
1E000000007800
1E000000003C00
3C000000003C00
3C000000003C00
3C000000001E00
78000000001E00
78000000000E00
78000000000F00
F0000000000F00
F0000000000780
ENDCHAR
STARTCHAR 00C1
ENCODING 193
SWIDTH 603 0
DWIDTH 52 0
BBX 49 81 2 0
BITMAP
0000003C000000
0000003C000000
0000003C000000
00000078000000
00000078000000
00000070000000
000000F0000000
000000F0000000
000000E0000000
000001E0000000
000001E0000000
00000000000000
00000000000000
00000000000000
00000000000000
00000000000000
00000000000000
00000000000000
00000000000000
000003C0000000
000003E0000000
000007E0000000
000007E0000000
000007F0000000
00000FF0000000
00000F78000000
00000E78000000
00001E78000000
00001E3C000000
00003C3C000000
00003C3C000000
00003C1E000000
0000781E000000
0000780E000000
0000700F000000
0000F00F000000
0000F007800000
0000E007800000
0001E007800000
0001E003C00000
0003C003C00000
0003C003C00000
0003C001E00000
00078001E00000
00078000E00000
00070000F00000
000F0000F00000
000F0000780000
000E0000780000
001E0000780000
001E00003C0000
003C00003C0000
003C00003C0000
003C00001E0000
007800001E0000
007800000E0000
007800000F0000
00F000000F0000
00F00000078000
00E00000078000
01E00000078000
01E0000003C000
03FFFFFFFFC000
03FFFFFFFFC000
03FFFFFFFFE000
0780000001E000
0780000000E000
0780000000F000
0F00000000F000
0F000000007800
0E000000007800
1E000000007800
1E000000003C00
3C000000003C00
3C000000003C00
3C000000001E00
78000000001E00
78000000000E00
78000000000F00
F0000000000F00
F0000000000780
ENDCHAR
STARTCHAR 00C2
ENCODING 194
SWIDTH 603 0
DWIDTH 52 0
BBX 49 80 2 0
BITMAP
000003E0000000
000007F0000000
00000FF0000000
00001F78000000
00001E3C000000
00003C3E000000
0000781F000000
0000F00F800000
0001F007800000
0003E003C00000
00000000000000
00000000000000
00000000000000
00000000000000
00000000000000
00000000000000
00000000000000
00000000000000
000003C0000000
000003E0000000
000007E0000000
000007E0000000
000007F0000000
00000FF0000000
00000F78000000
00000E78000000
00001E78000000
00001E3C000000
00003C3C000000
00003C3C000000
00003C1E000000
0000781E000000
0000780E000000
0000700F000000
0000F00F000000
0000F007800000
0000E007800000
0001E007800000
0001E003C00000
0003C003C00000
0003C003C00000
0003C001E00000
00078001E00000
00078000E00000
00070000F00000
000F0000F00000
000F0000780000
000E0000780000
001E0000780000
001E00003C0000
003C00003C0000
003C00003C0000
003C00001E0000
007800001E0000
007800000E0000
007800000F0000
00F000000F0000
00F00000078000
00E00000078000
01E00000078000
01E0000003C000
03FFFFFFFFC000
03FFFFFFFFC000
03FFFFFFFFE000
0780000001E000
0780000000E000
0780000000F000
0F00000000F000
0F000000007800
0E000000007800
1E000000007800
1E000000003C00
3C000000003C00
3C000000003C00
3C000000001E00
78000000001E00
78000000000E00
78000000000F00
F0000000000F00
F0000000000780
ENDCHAR
STARTCHAR 00C3
ENCODING 195
SWIDTH 603 0
DWIDTH 52 0
BBX 49 79 2 0
BITMAP
0001FC00700000
0003FF80700000
0007FFE0700000
00070FFDF00000
000F01FFE00000
000E007FC00000
0007001F800000
00000000000000
00000000000000
00000000000000
00000000000000
00000000000000
00000000000000
00000000000000
00000000000000
00000000000000
00000000000000
000003C0000000
000003E0000000
000007E0000000
000007E0000000
000007F0000000
00000FF0000000
00000F78000000
00000E78000000
00001E78000000
00001E3C000000
00003C3C000000
00003C3C000000
00003C1E000000
0000781E000000
0000780E000000
0000700F000000
0000F00F000000
0000F007800000
0000E007800000
0001E007800000
0001E003C00000
0003C003C00000
0003C003C00000
0003C001E00000
00078001E00000
00078000E00000
00070000F00000
000F0000F00000
000F0000780000
000E0000780000
001E0000780000
001E00003C0000
003C00003C0000
003C00003C0000
003C00001E0000
007800001E0000
007800000E0000
007800000F0000
00F000000F0000
00F00000078000
00E00000078000
01E00000078000
01E0000003C000
03FFFFFFFFC000
03FFFFFFFFC000
03FFFFFFFFE000
0780000001E000
0780000000E000
0780000000F000
0F00000000F000
0F000000007800
0E000000007800
1E000000007800
1E000000003C00
3C000000003C00
3C000000003C00
3C000000001E00
78000000001E00
78000000000E00
78000000000F00
F0000000000F00
F0000000000780
ENDCHAR
STARTCHAR 00C4
ENCODING 196
SWIDTH 603 0
DWIDTH 52 0
BBX 49 77 2 0
BITMAP
0003E007E00000
0003E007E00000
0003E007E00000
0003E007E00000
0003E007E00000
00000000000000
00000000000000
00000000000000
00000000000000
00000000000000
00000000000000
00000000000000
00000000000000
00000000000000
00000000000000
000003C0000000
000003E0000000
000007E0000000
000007E0000000
000007F0000000
00000FF0000000
00000F78000000
00000E78000000
00001E78000000
00001E3C000000
00003C3C000000
00003C3C000000
00003C1E000000
0000781E000000
0000780E000000
0000700F000000
0000F00F000000
0000F007800000
0000E007800000
0001E007800000
0001E003C00000
0003C003C00000
0003C003C00000
0003C001E00000
00078001E00000
00078000E00000
00070000F00000
000F0000F00000
000F0000780000
000E0000780000
001E0000780000
001E00003C0000
003C00003C0000
003C00003C0000
003C00001E0000
007800001E0000
007800000E0000
007800000F0000
00F000000F0000
00F00000078000
00E00000078000
01E00000078000
01E0000003C000
03FFFFFFFFC000
03FFFFFFFFC000
03FFFFFFFFE000
0780000001E000
0780000000E000
0780000000F000
0F00000000F000
0F000000007800
0E000000007800
1E000000007800
1E000000003C00
3C000000003C00
3C000000003C00
3C000000001E00
78000000001E00
78000000000E00
78000000000F00
F0000000000F00
F0000000000780
ENDCHAR
STARTCHAR 00C5
ENCODING 197
SWIDTH 603 0
DWIDTH 52 0
BBX 49 84 2 0
BITMAP
000007E0000000
00001FF8000000
00003FFC000000
00007FFE000000
00007C1F000000
0000F80F000000
0000F007000000
0000F007800000
0000F007800000
0000F007800000
0000F007000000
0000F80F000000
00007C1F000000
00007FFE000000
00003FFC000000
00000FF8000000
000007E0000000
00000000000000
00000000000000
00000000000000
00000000000000
00000000000000
000003C0000000
000003E0000000
000007E0000000
000007E0000000
000007F0000000
00000FF0000000
00000F78000000
00000E78000000
00001E78000000
00001E3C000000
00003C3C000000
00003C3C000000
00003C1E000000
0000781E000000
0000780E000000
0000700F000000
0000F00F000000
0000F007800000
0000E007800000
0001E007800000
0001E003C00000
0003C003C00000
0003C003C00000
0003C001E00000
00078001E00000
00078000E00000
00070000F00000
000F0000F00000
000F0000780000
000E0000780000
001E0000780000
001E00003C0000
003C00003C0000
003C00003C0000
003C00001E0000
007800001E0000
007800000E0000
007800000F0000
00F000000F0000
00F00000078000
00E00000078000
01E00000078000
01E0000003C000
03FFFFFFFFC000
03FFFFFFFFC000
03FFFFFFFFE000
0780000001E000
0780000000E000
0780000000F000
0F00000000F000
0F000000007800
0E000000007800
1E000000007800
1E000000003C00
3C000000003C00
3C000000003C00
3C000000001E00
78000000001E00
78000000000E00
78000000000F00
F0000000000F00
F0000000000780
ENDCHAR
STARTCHAR 00C6
ENCODING 198
SWIDTH 905 0
DWIDTH 78 0
BBX 72 62 2 0
BITMAP
000003FFFFFFFFFFFF
000003FFFFFFFFFFFF
000007FFFFFFFFFFFF
000007FFFFFFFFFFFF
000007003800000000
00000F003800000000
00000F003800000000
00000E003800000000
00001E003800000000
00001E003800000000
00003C003800000000
00003C003800000000
00003C003800000000
000078003800000000
000078003800000000
000070003800000000
0000F0003800000000
0000F0003800000000
0000E0003800000000
0001E0003800000000
0001E0003800000000
0003C0003800000000
0003C0003800000000
0003C0003800000000
000780003800000000
000780003800000000
000700003800000000
000F00003800000000
000F00003800000000
000E00003FFFFFFFC0
001E00003FFFFFFFC0
001E00003FFFFFFFC0
003C00003FFFFFFFC0
003C00003800000000
003C00003800000000
007800003800000000
007800003800000000
007000003800000000
00F000003800000000
00F000003800000000
00E000003800000000
01E000003800000000
01E000003800000000
03FFFFFFF800000000
03FFFFFFF800000000
03FFFFFFF800000000
078000003800000000
078000003800000000
078000003800000000
0F0000003800000000
0F0000003800000000
0E0000003800000000
1E0000003800000000
1E0000003800000000
3C0000003800000000
3C0000003800000000
3C0000003800000000
780000003800000000
780000003FFFFFFFFF
780000003FFFFFFFFF
F00000003FFFFFFFFF
F00000003FFFFFFFFF
ENDCHAR
STARTCHAR 00C7
ENCODING 199
SWIDTH 696 0
DWIDTH 60 0
BBX 54 83 3 -21
BITMAP
000007FF800000
00007FFFF80000
0001FFFFFF0000
0007FFFFFFC000
001FF0001FE000
003FC00007F800
007E000001FC00
00FC0000007E00
01F80000003F00
03E00000001F80
07C00000000F80
07C000000007C0
0F8000000003E0
0F0000000001E0
1F0000000001F0
1E0000000000F0
3E0000000000F8
3C000000000078
7C000000000078
7800000000007C
7800000000003C
78000000000000
F0000000000000
F0000000000000
F0000000000000
F0000000000000
F0000000000000
F0000000000000
F0000000000000
F0000000000000
E0000000000000
E0000000000000
E0000000000000
E0000000000000
E0000000000000
F0000000000000
F0000000000000
F0000000000000
F0000000000000
F0000000000000
F0000000000000
F0000000000000
78000000000000
7800000000003C
7800000000007C
7C000000000078
3C000000000078
3C0000000000F8
1E0000000000F0
1E0000000001F0
0F0000000001E0
0F8000000003E0
078000000007C0
07C00000000F80
03E00000001F80
01F00000003F00
00FC0000007E00
007E000001FC00
003F800007F800
001FF0003FE000
0007FFFFFFC000
0001FFFFFF0000
00003FFFF80000
000003FF800000
0000001E000000
0000001E000000
0000001C000000
0000003C000000
0000003C000000
0000003E000000
0000007F000000
0000003F800000
00000007C00000
00000003C00000
00000003C00000
00000001E00000
00000001E00000
00000003C00000
00000003C00000
00000107C00000
000003FF800000
000003FF000000
000003FE000000
ENDCHAR
STARTCHAR 00C8
ENCODING 200
SWIDTH 557 0
DWIDTH 48 0
BBX 38 82 6 0
BITMAP
0001C00000
0001E00000
0001E00000
0000E00000
0000F00000
0000F00000
0000780000
0000780000
0000780000
00003C0000
00003C0000
00001C0000
0000000000
0000000000
0000000000
0000000000
0000000000
0000000000
0000000000
0000000000
FFFFFFFFFC
FFFFFFFFFC
FFFFFFFFFC
FFFFFFFFFC
F000000000
F000000000
F000000000
F000000000
F000000000
F000000000
F000000000
F000000000
F000000000
F000000000
F000000000
F000000000
F000000000
F000000000
F000000000
F000000000
F000000000
F000000000
F000000000
F000000000
F000000000
F000000000
F000000000
F000000000
F000000000
FFFFFFFF80
FFFFFFFF80
FFFFFFFF80
FFFFFFFF80
F000000000
F000000000
F000000000
F000000000
F000000000
F000000000
F000000000
F000000000
F000000000
F000000000
F000000000
F000000000
F000000000
F000000000
F000000000
F000000000
F000000000
F000000000
F000000000
F000000000
F000000000
F000000000
F000000000
F000000000
F000000000
FFFFFFFFFC
FFFFFFFFFC
FFFFFFFFFC
FFFFFFFFFC
ENDCHAR
STARTCHAR 00C9
ENCODING 201
SWIDTH 557 0
DWIDTH 48 0
BBX 38 81 6 0
BITMAP
000003C000
0000078000
0000078000
0000078000
00000F0000
00000F0000
00000F0000
00001E0000
00001E0000
00001C0000
00003C0000
0000000000
0000000000
0000000000
0000000000
0000000000
0000000000
0000000000
0000000000
FFFFFFFFFC
FFFFFFFFFC
FFFFFFFFFC
FFFFFFFFFC
F000000000
F000000000
F000000000
F000000000
F000000000
F000000000
F000000000
F000000000
F000000000
F000000000
F000000000
F000000000
F000000000
F000000000
F000000000
F000000000
F000000000
F000000000
F000000000
F000000000
F000000000
F000000000
F000000000
F000000000
F000000000
FFFFFFFF80
FFFFFFFF80
FFFFFFFF80
FFFFFFFF80
F000000000
F000000000
F000000000
F000000000
F000000000
F000000000
F000000000
F000000000
F000000000
F000000000
F000000000
F000000000
F000000000
F000000000
F000000000
F000000000
F000000000
F000000000
F000000000
F000000000
F000000000
F000000000
F000000000
F000000000
F000000000
FFFFFFFFFC
FFFFFFFFFC
FFFFFFFFFC
FFFFFFFFFC
ENDCHAR
STARTCHAR 00CA
ENCODING 202
SWIDTH 557 0
DWIDTH 48 0
BBX 38 80 6 0
BITMAP
0000F80000
0001FC0000
0003FE0000
0003DE0000
00078F0000
000F078000
001F03C000
003E03E000
007C01F000
007800F000
0080000800
0000000000
0000000000
0000000000
0000000000
0000000000
0000000000
0000000000
FFFFFFFFFC
FFFFFFFFFC
FFFFFFFFFC
FFFFFFFFFC
F000000000
F000000000
F000000000
F000000000
F000000000
F000000000
F000000000
F000000000
F000000000
F000000000
F000000000
F000000000
F000000000
F000000000
F000000000
F000000000
F000000000
F000000000
F000000000
F000000000
F000000000
F000000000
F000000000
F000000000
F000000000
FFFFFFFF80
FFFFFFFF80
FFFFFFFF80
FFFFFFFF80
F000000000
F000000000
F000000000
F000000000
F000000000
F000000000
F000000000
F000000000
F000000000
F000000000
F000000000
F000000000
F000000000
F000000000
F000000000
F000000000
F000000000
F000000000
F000000000
F000000000
F000000000
F000000000
F000000000
F000000000
F000000000
FFFFFFFFFC
FFFFFFFFFC
FFFFFFFFFC
FFFFFFFFFC
ENDCHAR
STARTCHAR 00CB
ENCODING 203
SWIDTH 557 0
DWIDTH 48 0
BBX 38 77 6 0
BITMAP
01F801F000
01F801F000
01F801F000
01F801F000
01F801F000
0000000000
0000000000
0000000000
0000000000
0000000000
0000000000
0000000000
0000000000
0000000000
0000000000
FFFFFFFFFC
FFFFFFFFFC
FFFFFFFFFC
FFFFFFFFFC
F000000000
F000000000
F000000000
F000000000
F000000000
F000000000
F000000000
F000000000
F000000000
F000000000
F000000000
F000000000
F000000000
F000000000
F000000000
F000000000
F000000000
F000000000
F000000000
F000000000
F000000000
F000000000
F000000000
F000000000
F000000000
FFFFFFFF80
FFFFFFFF80
FFFFFFFF80
FFFFFFFF80
F000000000
F000000000
F000000000
F000000000
F000000000
F000000000
F000000000
F000000000
F000000000
F000000000
F000000000
F000000000
F000000000
F000000000
F000000000
F000000000
F000000000
F000000000
F000000000
F000000000
F000000000
F000000000
F000000000
F000000000
F000000000
FFFFFFFFFC
FFFFFFFFFC
FFFFFFFFFC
FFFFFFFFFC
ENDCHAR
STARTCHAR 00CC
ENCODING 204
SWIDTH 197 0
DWIDTH 17 0
BBX 8 82 3 0
BITMAP
E0
F0
F0
70
78
78
3C
3C
3C
1E
1E
0E
00
00
00
00
00
00
00
00
0F
0F
0F
0F
0F
0F
0F
0F
0F
0F
0F
0F
0F
0F
0F
0F
0F
0F
0F
0F
0F
0F
0F
0F
0F
0F
0F
0F
0F
0F
0F
0F
0F
0F
0F
0F
0F
0F
0F
0F
0F
0F
0F
0F
0F
0F
0F
0F
0F
0F
0F
0F
0F
0F
0F
0F
0F
0F
0F
0F
0F
0F
ENDCHAR
STARTCHAR 00CD
ENCODING 205
SWIDTH 197 0
DWIDTH 17 0
BBX 8 81 7 0
BITMAP
0F
1E
1E
1C
3C
3C
38
78
78
F0
F0
00
00
00
00
00
00
00
00
F0
F0
F0
F0
F0
F0
F0
F0
F0
F0
F0
F0
F0
F0
F0
F0
F0
F0
F0
F0
F0
F0
F0
F0
F0
F0
F0
F0
F0
F0
F0
F0
F0
F0
F0
F0
F0
F0
F0
F0
F0
F0
F0
F0
F0
F0
F0
F0
F0
F0
F0
F0
F0
F0
F0
F0
F0
F0
F0
F0
F0
F0
ENDCHAR
STARTCHAR 00CE
ENCODING 206
SWIDTH 197 0
DWIDTH 17 0
BBX 20 80 -1 0
BITMAP
01F000
03F800
03FC00
07BE00
0F1E00
1F0F00
3E0780
7C03C0
7803E0
F001F0
000000
000000
000000
000000
000000
000000
000000
000000
00F000
00F000
00F000
00F000
00F000
00F000
00F000
00F000
00F000
00F000
00F000
00F000
00F000
00F000
00F000
00F000
00F000
00F000
00F000
00F000
00F000
00F000
00F000
00F000
00F000
00F000
00F000
00F000
00F000
00F000
00F000
00F000
00F000
00F000
00F000
00F000
00F000
00F000
00F000
00F000
00F000
00F000
00F000
00F000
00F000
00F000
00F000
00F000
00F000
00F000
00F000
00F000
00F000
00F000
00F000
00F000
00F000
00F000
00F000
00F000
00F000
00F000
ENDCHAR
STARTCHAR 00CF
ENCODING 207
SWIDTH 197 0
DWIDTH 17 0
BBX 21 77 -2 0
BITMAP
FC00F8
FC00F8
FC00F8
FC00F8
FC00F8
000000
000000
000000
000000
000000
000000
000000
000000
000000
000000
007800
007800
007800
007800
007800
007800
007800
007800
007800
007800
007800
007800
007800
007800
007800
007800
007800
007800
007800
007800
007800
007800
007800
007800
007800
007800
007800
007800
007800
007800
007800
007800
007800
007800
007800
007800
007800
007800
007800
007800
007800
007800
007800
007800
007800
007800
007800
007800
007800
007800
007800
007800
007800
007800
007800
007800
007800
007800
007800
007800
007800
007800
ENDCHAR
STARTCHAR 00D0
ENCODING 208
SWIDTH 638 0
DWIDTH 55 0
BBX 51 62 1 0
BITMAP
0FFFFFFE000000
0FFFFFFFE00000
0FFFFFFFF80000
0FFFFFFFFE0000
0F000001FF0000
0F0000001FC000
0F00000007E000
0F00000003F000
0F00000001F000
0F00000000F800
0F000000007C00
0F000000003C00
0F000000001E00
0F000000001E00
0F000000000F00
0F000000000F00
0F000000000780
0F000000000780
0F000000000780
0F000000000380
0F0000000003C0
0F0000000003C0
0F0000000003C0
0F0000000003C0
0F0000000003C0
0F0000000001C0
0F0000000001E0
0F0000000001E0
0F0000000001E0
FFFFFFC00001E0
FFFFFFC00001E0
FFFFFFC00001E0
FFFFFFC00001E0
0F0000000001E0
0F0000000001E0
0F0000000001E0
0F0000000001C0
0F0000000003C0
0F0000000003C0
0F0000000003C0
0F0000000003C0
0F0000000003C0
0F000000000780
0F000000000780
0F000000000780
0F000000000780
0F000000000F00
0F000000000F00
0F000000001E00
0F000000001E00
0F000000003C00
0F000000007C00
0F00000000F800
0F00000001F000
0F00000003F000
0F00000007E000
0F0000001FC000
0F000000FF0000
0FFFFFFFFE0000
0FFFFFFFF80000
0FFFFFFFE00000
0FFFFFFE000000
ENDCHAR
STARTCHAR 00D1
ENCODING 209
SWIDTH 661 0
DWIDTH 57 0
BBX 45 77 6 0
BITMAP
0003FC00E000
0007FF00F000
0007FFC0E000
000F0FF1E000
000E03FFE000
000E00FFC000
000E003F8000
000000000000
000000000000
000000000000
000000000000
000000000000
000000000000
000000000000
000000000000
F00000000078
F80000000078
F80000000078
FC0000000078
FE0000000078
FE0000000078
FF0000000078
FF8000000078
F78000000078
F3C000000078
F3E000000078
F1E000000078
F0F000000078
F0F800000078
F07C00000078
F03C00000078
F03E00000078
F01F00000078
F00F00000078
F00780000078
F007C0000078
F003C0000078
F001E0000078
F001F0000078
F000F0000078
F00078000078
F0007C000078
F0003C000078
F0001E000078
F0001F000078
F0000F000078
F00007800078
F00007C00078
F00003C00078
F00001E00078
F00001F00078
F00000F00078
F00000780078
F000007C0078
F000003C0078
F000001E0078
F000001F0078
F000000F8078
F00000078078
F0000007C078
F0000003E078
F0000001E078
F0000000F078
F0000000F878
F00000007878
F00000003C78
F00000003E78
F00000001E78
F00000000F78
F00000000FF8
F000000007F8
F000000003F8
F000000003F8
F000000001F8
F000000000F8
F000000000F8
F00000000078
ENDCHAR
STARTCHAR 00D2
ENCODING 210
SWIDTH 708 0
DWIDTH 61 0
BBX 55 82 3 -1
BITMAP
000003C0000000
000003C0000000
000001C0000000
000001E0000000
000001E0000000
000000E0000000
000000F0000000
000000F0000000
00000078000000
00000078000000
00000078000000
0000003C000000
00000000000000
00000000000000
00000000000000
00000000000000
00000000000000
00000000000000
000007FF800000
00007FFFF80000
0001FFFFFF0000
0007FFFFFFC000
001FF0003FE000
003FC00007F800
007E000001FC00
00FC0000007E00
01F80000003F00
03E00000001F80
07C00000000F80
07C000000007C0
0F8000000003E0
0F0000000001E0
1F0000000001F0
1E0000000000F0
3E0000000000F8
3C000000000078
7C000000000078
7800000000007C
7800000000003C
7800000000003C
F000000000003C
F000000000001C
F000000000001E
F000000000001E
F000000000001E
F000000000001E
F000000000001E
F000000000001E
E000000000001E
E000000000001E
E000000000001E
E000000000001E
E000000000001E
F000000000001E
F000000000001E
F000000000001E
F000000000001E
F000000000001E
F000000000001C
F000000000003C
7800000000003C
7800000000003C
7800000000007C
7C000000000078
3C000000000078
3C0000000000F8
1E0000000000F0
1E0000000001F0
0F0000000001E0
0F8000000003E0
078000000007C0
07C00000000F80
03E00000001F80
01F00000003F00
00FC0000007E00
007E000001FC00
003F800007F800
001FF0003FE000
0007FFFFFFC000
0001FFFFFF0000
00003FFFF80000
000003FFC00000
ENDCHAR
STARTCHAR 00D3
ENCODING 211
SWIDTH 708 0
DWIDTH 61 0
BBX 55 82 3 -1
BITMAP
00000003C00000
00000003C00000
00000003800000
00000007800000
00000007800000
00000007000000
0000000F000000
0000000F000000
0000000E000000
0000001E000000
0000001E000000
0000003C000000
00000000000000
00000000000000
00000000000000
00000000000000
00000000000000
00000000000000
000007FF800000
00007FFFF80000
0001FFFFFF0000
0007FFFFFFC000
001FF0003FE000
003FC00007F800
007E000001FC00
00FC0000007E00
01F80000003F00
03E00000001F80
07C00000000F80
07C000000007C0
0F8000000003E0
0F0000000001E0
1F0000000001F0
1E0000000000F0
3E0000000000F8
3C000000000078
7C000000000078
7800000000007C
7800000000003C
7800000000003C
F000000000003C
F000000000001C
F000000000001E
F000000000001E
F000000000001E
F000000000001E
F000000000001E
F000000000001E
E000000000001E
E000000000001E
E000000000001E
E000000000001E
E000000000001E
F000000000001E
F000000000001E
F000000000001E
F000000000001E
F000000000001E
F000000000001C
F000000000003C
7800000000003C
7800000000003C
7800000000007C
7C000000000078
3C000000000078
3C0000000000F8
1E0000000000F0
1E0000000001F0
0F0000000001E0
0F8000000003E0
078000000007C0
07C00000000F80
03E00000001F80
01F00000003F00
00FC0000007E00
007E000001FC00
003F800007F800
001FF0003FE000
0007FFFFFFC000
0001FFFFFF0000
00003FFFF80000
000003FFC00000
ENDCHAR
STARTCHAR 00D4
ENCODING 212
SWIDTH 708 0
DWIDTH 61 0
BBX 55 81 3 -1
BITMAP
0000007C000000
000000FE000000
000001FE000000
000001EF000000
000003C7800000
00000787C00000
00000F03E00000
00001F01F00000
00003E00F00000
00003C00780000
00004000000000
00000000000000
00000000000000
00000000000000
00000000000000
00000000000000
00000000000000
000007FF800000
00007FFFF80000
0001FFFFFF0000
0007FFFFFFC000
001FF0003FE000
003FC00007F800
007E000001FC00
00FC0000007E00
01F80000003F00
03E00000001F80
07C00000000F80
07C000000007C0
0F8000000003E0
0F0000000001E0
1F0000000001F0
1E0000000000F0
3E0000000000F8
3C000000000078
7C000000000078
7800000000007C
7800000000003C
7800000000003C
F000000000003C
F000000000001C
F000000000001E
F000000000001E
F000000000001E
F000000000001E
F000000000001E
F000000000001E
E000000000001E
E000000000001E
E000000000001E
E000000000001E
E000000000001E
F000000000001E
F000000000001E
F000000000001E
F000000000001E
F000000000001E
F000000000001C
F000000000003C
7800000000003C
7800000000003C
7800000000007C
7C000000000078
3C000000000078
3C0000000000F8
1E0000000000F0
1E0000000001F0
0F0000000001E0
0F8000000003E0
078000000007C0
07C00000000F80
03E00000001F80
01F00000003F00
00FC0000007E00
007E000001FC00
003F800007F800
001FF0003FE000
0007FFFFFFC000
0001FFFFFF0000
00003FFFF80000
000003FFC00000
ENDCHAR
STARTCHAR 00D5
ENCODING 213
SWIDTH 708 0
DWIDTH 61 0
BBX 55 78 3 -1
BITMAP
00001F80070000
00003FF0070000
00007FFC070000
00007FFF0F0000
0000F03FFE0000
0000E00FFE0000
0000E003F80000
00000000000000
00000000000000
00000000000000
00000000000000
00000000000000
00000000000000
00000000000000
000007FF800000
00007FFFF80000
0001FFFFFF0000
0007FFFFFFC000
001FF0003FE000
003FC00007F800
007E000001FC00
00FC0000007E00
01F80000003F00
03E00000001F80
07C00000000F80
07C000000007C0
0F8000000003E0
0F0000000001E0
1F0000000001F0
1E0000000000F0
3E0000000000F8
3C000000000078
7C000000000078
7800000000007C
7800000000003C
7800000000003C
F000000000003C
F000000000001C
F000000000001E
F000000000001E
F000000000001E
F000000000001E
F000000000001E
F000000000001E
E000000000001E
E000000000001E
E000000000001E
E000000000001E
E000000000001E
F000000000001E
F000000000001E
F000000000001E
F000000000001E
F000000000001E
F000000000001C
F000000000003C
7800000000003C
7800000000003C
7800000000007C
7C000000000078
3C000000000078
3C0000000000F8
1E0000000000F0
1E0000000001F0
0F0000000001E0
0F8000000003E0
078000000007C0
07C00000000F80
03E00000001F80
01F00000003F00
00FC0000007E00
007E000001FC00
003F800007F800
001FF0003FE000
0007FFFFFFC000
0001FFFFFF0000
00003FFFF80000
000003FFC00000
ENDCHAR
STARTCHAR 00D6
ENCODING 214
SWIDTH 708 0
DWIDTH 61 0
BBX 55 78 3 -1
BITMAP
00007C007C0000
00007C007C0000
00007C007C0000
00007C007C0000
00007C007C0000
00000000000000
00000000000000
00000000000000
00000000000000
00000000000000
00000000000000
00000000000000
00000000000000
00000000000000
000007FF800000
00007FFFF80000
0001FFFFFF0000
0007FFFFFFC000
001FF0003FE000
003FC00007F800
007E000001FC00
00FC0000007E00
01F80000003F00
03E00000001F80
07C00000000F80
07C000000007C0
0F8000000003E0
0F0000000001E0
1F0000000001F0
1E0000000000F0
3E0000000000F8
3C000000000078
7C000000000078
7800000000007C
7800000000003C
7800000000003C
F000000000003C
F000000000001C
F000000000001E
F000000000001E
F000000000001E
F000000000001E
F000000000001E
F000000000001E
E000000000001E
E000000000001E
E000000000001E
E000000000001E
E000000000001E
F000000000001E
F000000000001E
F000000000001E
F000000000001E
F000000000001E
F000000000001C
F000000000003C
7800000000003C
7800000000003C
7800000000007C
7C000000000078
3C000000000078
3C0000000000F8
1E0000000000F0
1E0000000001F0
0F0000000001E0
0F8000000003E0
078000000007C0
07C00000000F80
03E00000001F80
01F00000003F00
00FC0000007E00
007E000001FC00
003F800007F800
001FF0003FE000
0007FFFFFFC000
0001FFFFFF0000
00003FFFF80000
000003FFC00000
ENDCHAR
STARTCHAR 00D7
ENCODING 215
SWIDTH 476 0
DWIDTH 41 0
BBX 31 30 5 15
BITMAP
20000008
7000001C
F800003E
7C00007C
3E0000F8
1F0001F0
0F8003E0
07C007C0
03E00F80
01F01F00
00F83E00
007C7C00
003EF800
001FF000
000FE000
0007C000
000FE000
001FF000
003EF800
007C7C00
00F83E00
01F01F00
03E00F80
07C007C0
0F8003E0
1F0001F0
3E0000F8
7C00007C
7800003C
30000018
ENDCHAR
STARTCHAR 00D8
ENCODING 216
SWIDTH 708 0
DWIDTH 61 0
BBX 60 64 0 -1
BITMAP
0000007FF0000040
00000FFFFF0000F0
00003FFFFFE000F0
0000FFFFFFF801F0
0003FE0007FE03E0
0007F80000FF07C0
000FC000003F8F80
001F8000000FDF00
003F00000007FE00
007C00000003FC00
00F800000001F800
00F800000000F800
01F000000001FC00
01E000000003FC00
03E000000007FE00
03C00000000F9E00
07C00000001F1F00
07800000003E0F00
0F800000007C0F00
0F00000000F80F80
0F00000001F00780
0F00000003E00780
1F00000007C00780
1E0000000F8003C0
1E0000001F0003C0
1E0000003E0003C0
1E0000007C0003C0
1E000000F80003C0
1E000001F00003C0
1E000001F00003C0
1C000003E00003C0
1C000007C00003C0
1C00000F800003C0
1C00001F000003C0
1C00003E000003C0
1E00007C000003C0
1E0000F8000003C0
1E0001F0000003C0
1E0003E0000003C0
1E0007C0000003C0
1E000F8000000380
1E001F0000000780
0F003E0000000780
0F007C0000000780
0F00F80000000F80
0F01F00000000F00
0781E00000000F00
0783E00000001F00
03C7C00000001E00
03CF800000003E00
03FF000000003C00
01FE000000007C00
00FC00000000F800
00F800000001F000
01FC00000003F000
03FE00000007E000
07DF8000000FC000
0F8FC000003F8000
1F07F00000FF0000
3E03FE0007FC0000
7C00FFFFFFF80000
F8003FFFFFE00000
780007FFFF000000
1000007FF8000000
ENDCHAR
STARTCHAR 00D9
ENCODING 217
SWIDTH 685 0
DWIDTH 59 0
BBX 47 83 6 -1
BITMAP
00001E000000
00001E000000
00001E000000
00000F000000
00000F000000
00000F000000
000007800000
000007800000
000003800000
000003C00000
000003C00000
000001C00000
000000000000
000000000000
000000000000
000000000000
000000000000
000000000000
000000000000
000000000000
F0000000000E
F0000000000E
F0000000000E
F0000000000E
F0000000000E
F0000000000E
F0000000000E
F0000000000E
F0000000000E
F0000000000E
F0000000000E
F0000000000E
F0000000000E
F0000000000E
F0000000000E
F0000000000E
F0000000000E
F0000000000E
F0000000000E
F0000000000E
F0000000000E
F0000000000E
F0000000000E
F0000000000E
F0000000000E
F0000000000E
F0000000000E
F0000000000E
F0000000000E
F0000000000E
F0000000000E
F0000000000E
F0000000000E
F0000000000E
F0000000000E
F0000000000E
F0000000000E
F0000000000E
F0000000000E
F0000000000E
F0000000000E
F0000000000E
F0000000001E
F0000000001E
F0000000001E
78000000001E
78000000003E
78000000003C
7C000000003C
3C000000007C
3E0000000078
1E00000000F8
1F00000001F0
0F80000003E0
07C0000007E0
03E000000FC0
01F800003F80
00FE00007F00
007F8003FE00
003FFEFFF800
000FFFFFE000
0001FFFF8000
00003FF80000
ENDCHAR
STARTCHAR 00DA
ENCODING 218
SWIDTH 685 0
DWIDTH 59 0
BBX 47 82 6 -1
BITMAP
000000700000
000000F00000
000000F00000
000000E00000
000001E00000
000001E00000
000003C00000
000003C00000
000003C00000
000007800000
000007800000
000000000000
000000000000
000000000000
000000000000
000000000000
000000000000
000000000000
000000000000
F0000000000E
F0000000000E
F0000000000E
F0000000000E
F0000000000E
F0000000000E
F0000000000E
F0000000000E
F0000000000E
F0000000000E
F0000000000E
F0000000000E
F0000000000E
F0000000000E
F0000000000E
F0000000000E
F0000000000E
F0000000000E
F0000000000E
F0000000000E
F0000000000E
F0000000000E
F0000000000E
F0000000000E
F0000000000E
F0000000000E
F0000000000E
F0000000000E
F0000000000E
F0000000000E
F0000000000E
F0000000000E
F0000000000E
F0000000000E
F0000000000E
F0000000000E
F0000000000E
F0000000000E
F0000000000E
F0000000000E
F0000000000E
F0000000000E
F0000000001E
F0000000001E
F0000000001E
78000000001E
78000000003E
78000000003C
7C000000003C
3C000000007C
3E0000000078
1E00000000F8
1F00000001F0
0F80000003E0
07C0000007E0
03E000000FC0
01F800003F80
00FE00007F00
007F8003FE00
003FFEFFF800
000FFFFFE000
0001FFFF8000
00003FF80000
ENDCHAR
STARTCHAR 00DB
ENCODING 219
SWIDTH 685 0
DWIDTH 59 0
BBX 47 81 6 -1
BITMAP
000007C00000
00000FE00000
00000FF00000
00001EF80000
00003C780000
00007C3C0000
0000F81E0000
0001F00F0000
0001E00F8000
0003C007C000
000000000000
000000000000
000000000000
000000000000
000000000000
000000000000
000000000000
000000000000
F0000000000E
F0000000000E
F0000000000E
F0000000000E
F0000000000E
F0000000000E
F0000000000E
F0000000000E
F0000000000E
F0000000000E
F0000000000E
F0000000000E
F0000000000E
F0000000000E
F0000000000E
F0000000000E
F0000000000E
F0000000000E
F0000000000E
F0000000000E
F0000000000E
F0000000000E
F0000000000E
F0000000000E
F0000000000E
F0000000000E
F0000000000E
F0000000000E
F0000000000E
F0000000000E
F0000000000E
F0000000000E
F0000000000E
F0000000000E
F0000000000E
F0000000000E
F0000000000E
F0000000000E
F0000000000E
F0000000000E
F0000000000E
F0000000000E
F0000000001E
F0000000001E
F0000000001E
78000000001E
78000000003E
78000000003C
7C000000003C
3C000000007C
3E0000000078
1E00000000F8
1F00000001F0
0F80000003E0
07C0000007E0
03E000000FC0
01F800003F80
00FE00007F00
007F8003FE00
003FFEFFF800
000FFFFFE000
0001FFFF8000
00003FF80000
ENDCHAR
STARTCHAR 00DC
ENCODING 220
SWIDTH 685 0
DWIDTH 59 0
BBX 47 78 6 -1
BITMAP
0007E007C000
0007E007C000
0007E007C000
0007E007C000
0007E007C000
000000000000
000000000000
000000000000
000000000000
000000000000
000000000000
000000000000
000000000000
000000000000
000000000000
F0000000000E
F0000000000E
F0000000000E
F0000000000E
F0000000000E
F0000000000E
F0000000000E
F0000000000E
F0000000000E
F0000000000E
F0000000000E
F0000000000E
F0000000000E
F0000000000E
F0000000000E
F0000000000E
F0000000000E
F0000000000E
F0000000000E
F0000000000E
F0000000000E
F0000000000E
F0000000000E
F0000000000E
F0000000000E
F0000000000E
F0000000000E
F0000000000E
F0000000000E
F0000000000E
F0000000000E
F0000000000E
F0000000000E
F0000000000E
F0000000000E
F0000000000E
F0000000000E
F0000000000E
F0000000000E
F0000000000E
F0000000000E
F0000000000E
F0000000001E
F0000000001E
F0000000001E
78000000001E
78000000003E
78000000003C
7C000000003C
3C000000007C
3E0000000078
1E00000000F8
1F00000001F0
0F80000003E0
07C0000007E0
03E000000FC0
01F800003F80
00FE00007F00
007F8003FE00
003FFEFFF800
000FFFFFE000
0001FFFF8000
00003FF80000
ENDCHAR
STARTCHAR 00DD
ENCODING 221
SWIDTH 522 0
DWIDTH 45 0
BBX 44 81 0 0
BITMAP
000001E00000
000001C00000
000003C00000
000003C00000
000003800000
000007800000
000007800000
000007000000
00000F000000
00000F000000
00001E000000
000000000000
000000000000
000000000000
000000000000
000000000000
000000000000
000000000000
000000000000
F000000000F0
7800000000F0
7C00000001E0
3C00000001E0
1E00000003C0
1E00000007C0
0F0000000780
0F0000000F00
078000000F00
07C000001E00
03C000003E00
01E000003C00
01E000007C00
00F000007800
00F80000F000
00780000F000
007C0001E000
003C0003E000
001E0003C000
001E00078000
000F00078000
000F800F0000
0007800F0000
0003C01E0000
0003C03E0000
0001E03C0000
0001E0780000
0000F0780000
0000F8F00000
000078F00000
00003DE00000
00003FE00000
00001FC00000
00001F800000
00000F800000
00000F000000
000007000000
000007000000
000007000000
000007000000
000007000000
000007000000
000007000000
000007000000
000007000000
000007000000
000007000000
000007000000
000007000000
000007000000
000007000000
000007000000
000007000000
000007000000
000007000000
000007000000
000007000000
000007000000
000007000000
000007000000
000007000000
000007000000
ENDCHAR
STARTCHAR 00DE
ENCODING 222
SWIDTH 569 0
DWIDTH 49 0
BBX 41 62 6 0
BITMAP
F00000000000
F00000000000
F00000000000
F00000000000
F00000000000
F00000000000
F00000000000
F00000000000
F00000000000
F00000000000
F00000000000
F00000000000
FFFFFE000000
FFFFFFF00000
FFFFFFFC0000
FFFFFFFF0000
F000007FC000
F000000FE000
F0000003F000
F0000001F800
F0000000F800
F00000007C00
F00000003C00
F00000001E00
F00000001E00
F00000000F00
F00000000F00
F00000000F00
F00000000F00
F00000000780
F00000000780
F00000000780
F00000000780
F00000000700
F00000000F00
F00000000F00
F00000000F00
F00000001E00
F00000001E00
F00000003C00
F00000007C00
F0000000F800
F0000001F800
F0000003F000
F000000FE000
F000003FC000
FFFFFFFF0000
FFFFFFFE0000
FFFFFFF00000
FFFFFE000000
F00000000000
F00000000000
F00000000000
F00000000000
F00000000000
F00000000000
F00000000000
F00000000000
F00000000000
F00000000000
F00000000000
F00000000000
ENDCHAR
STARTCHAR 00DF
ENCODING 223
SWIDTH 580 0
DWIDTH 50 0
BBX 38 64 6 -1
BITMAP
000FF80000
00FFFF0000
01FFFFC000
07FFFFF000
0FE003F800
1F8000F800
1F00007C00
3E00003E00
3C00001E00
7800001F00
7800000F00
7800000F00
F000000F00
F000000780
F000000780
F000000780
F000000780
F000000780
F000000700
F000000F00
F000000F00
F000000F00
F000001E00
F000003E00
F000007C00
F00000FC00
F00001F800
F0000FF000
F000FFC000
F000FF0000
F000FFF000
F000FFFC00
F00007FE00
F000007F80
F000001FC0
F0000007E0
F0000003E0
F0000001F0
F0000000F8
F000000078
F000000078
F00000003C
F00000003C
F00000003C
F00000003C
F00000003C
F00000003C
F00000003C
F00000003C
F00000003C
F00000003C
F00000007C
F000000078
F000000078
F0000000F8
F0000001F0
F0000003E0
F0000007E0
F000001FC0
F010007F80
F01FFFFF00
F01FFFFC00
F01FFFF000
0007FF8000
ENDCHAR
STARTCHAR 00E0
ENCODING 224
SWIDTH 545 0
DWIDTH 47 0
BBX 39 67 3 -1
BITMAP
0001E00000
0000E00000
0000F00000
0000F00000
0000700000
0000780000
0000780000
00003C0000
00003C0000
00003C0000
00001E0000
00001E0000
0000000000
0000000000
0000000000
0000000000
0000000000
0000000000
0001FFC000
000FFFF800
003FFFFE00
00FFFFFF80
01FE001FC0
03F00007E0
07E00001F0
07C00000F0
0F800000F8
1F00000078
1F0000003C
1E0000003C
3E0000003C
0C0000003C
000000001C
000000001C
000000001C
000000001C
000000001E
00000001FE
000003FFFE
0000FFFFFE
001FFFFFFE
00FFFF801E
03FFC0001E
07FC00001E
0FE000001E
1F8000001E
3E0000001E
3C0000001E
7C0000003E
780000003E
780000003E
700000003E
F00000007E
F00000007E
F00000007E
70000000FE
78000001FE
78000001FE
7C000003DE
3C000007DE
3E00001F9E
1F80007F1E
0FE001FE1E
07FFFFF81E
01FFFFF01E
00FFFF801E
001FFC0000
ENDCHAR
STARTCHAR 00E1
ENCODING 225
SWIDTH 545 0
DWIDTH 47 0
BBX 39 67 3 -1
BITMAP
000001C000
000003C000
000003C000
0000038000
0000078000
0000078000
0000070000
00000F0000
00000F0000
00000E0000
00001E0000
00001E0000
0000000000
0000000000
0000000000
0000000000
0000000000
0000000000
0001FFC000
000FFFF800
003FFFFE00
00FFFFFF80
01FE001FC0
03F00007E0
07E00001F0
07C00000F0
0F800000F8
1F00000078
1F0000003C
1E0000003C
3E0000003C
0C0000003C
000000001C
000000001C
000000001C
000000001C
000000001E
00000001FE
000003FFFE
0000FFFFFE
001FFFFFFE
00FFFF801E
03FFC0001E
07FC00001E
0FE000001E
1F8000001E
3E0000001E
3C0000001E
7C0000003E
780000003E
780000003E
700000003E
F00000007E
F00000007E
F00000007E
70000000FE
78000001FE
78000001FE
7C000003DE
3C000007DE
3E00001F9E
1F80007F1E
0FE001FE1E
07FFFFF81E
01FFFFF01E
00FFFF801E
001FFC0000
ENDCHAR
STARTCHAR 00E2
ENCODING 226
SWIDTH 545 0
DWIDTH 47 0
BBX 39 66 3 -1
BITMAP
00001E0000
00003F0000
00007F8000
0000FFC000
0001F3E000
0003E1F000
0003C0F000
0007807800
000F003C00
001E001E00
0000000000
0000000000
0000000000
0000000000
0000000000
0000000000
0000000000
0001FFC000
000FFFF800
003FFFFE00
00FFFFFF80
01FE001FC0
03F00007E0
07E00001F0
07C00000F0
0F800000F8
1F00000078
1F0000003C
1E0000003C
3E0000003C
0C0000003C
000000001C
000000001C
000000001C
000000001C
000000001E
00000001FE
000003FFFE
0000FFFFFE
001FFFFFFE
00FFFF801E
03FFC0001E
07FC00001E
0FE000001E
1F8000001E
3E0000001E
3C0000001E
7C0000003E
780000003E
780000003E
700000003E
F00000007E
F00000007E
F00000007E
70000000FE
78000001FE
78000001FE
7C000003DE
3C000007DE
3E00001F9E
1F80007F1E
0FE001FE1E
07FFFFF81E
01FFFFF01E
00FFFF801E
001FFC0000
ENDCHAR
STARTCHAR 00E3
ENCODING 227
SWIDTH 545 0
DWIDTH 47 0
BBX 39 63 3 -1
BITMAP
0007C00380
001FF80380
003FFE0380
003FFF8780
00781FFF00
007807FF00
003801FE00
0000000000
0000000000
0000000000
0000000000
0000000000
0000000000
0000000000
0001FFC000
000FFFF800
003FFFFE00
00FFFFFF80
01FE001FC0
03F00007E0
07E00001F0
07C00000F0
0F800000F8
1F00000078
1F0000003C
1E0000003C
3E0000003C
0C0000003C
000000001C
000000001C
000000001C
000000001C
000000001E
00000001FE
000003FFFE
0000FFFFFE
001FFFFFFE
00FFFF801E
03FFC0001E
07FC00001E
0FE000001E
1F8000001E
3E0000001E
3C0000001E
7C0000003E
780000003E
780000003E
700000003E
F00000007E
F00000007E
F00000007E
70000000FE
78000001FE
78000001FE
7C000003DE
3C000007DE
3E00001F9E
1F80007F1E
0FE001FE1E
07FFFFF81E
01FFFFF01E
00FFFF801E
001FFC0000
ENDCHAR
STARTCHAR 00E4
ENCODING 228
SWIDTH 545 0
DWIDTH 47 0
BBX 39 63 3 -1
BITMAP
001F001F00
001F001F00
001F001F00
001F001F00
001F001F00
0000000000
0000000000
0000000000
0000000000
0000000000
0000000000
0000000000
0000000000
0000000000
0001FFC000
000FFFF800
003FFFFE00
00FFFFFF80
01FE001FC0
03F00007E0
07E00001F0
07C00000F0
0F800000F8
1F00000078
1F0000003C
1E0000003C
3E0000003C
0C0000003C
000000001C
000000001C
000000001C
000000001C
000000001E
00000001FE
000003FFFE
0000FFFFFE
001FFFFFFE
00FFFF801E
03FFC0001E
07FC00001E
0FE000001E
1F8000001E
3E0000001E
3C0000001E
7C0000003E
780000003E
780000003E
700000003E
F00000007E
F00000007E
F00000007E
70000000FE
78000001FE
78000001FE
7C000003DE
3C000007DE
3E00001F9E
1F80007F1E
0FE001FE1E
07FFFFF81E
01FFFFF01E
00FFFF801E
001FFC0000
ENDCHAR
STARTCHAR 00E5
ENCODING 229
SWIDTH 545 0
DWIDTH 47 0
BBX 39 70 3 -1
BITMAP
00000C0000
00007F8000
0001FFE000
0003FFE000
0003E1F000
0007C0F800
0007807800
0007003800
0007003800
0007003800
0007807800
0007807800
0003C0F000
0003FFF000
0001FFE000
0000FFC000
00003F0000
0000000000
0000000000
0000000000
0000000000
0001FFC000
000FFFF800
003FFFFE00
00FFFFFF80
01FE001FC0
03F00007E0
07E00001F0
07C00000F0
0F800000F8
1F00000078
1F0000003C
1E0000003C
3E0000003C
0C0000003C
000000001C
000000001C
000000001C
000000001C
000000001E
00000001FE
000003FFFE
0000FFFFFE
001FFFFFFE
00FFFF801E
03FFC0001E
07FC00001E
0FE000001E
1F8000001E
3E0000001E
3C0000001E
7C0000003E
780000003E
780000003E
700000003E
F00000007E
F00000007E
F00000007E
70000000FE
78000001FE
78000001FE
7C000003DE
3C000007DE
3E00001F9E
1F80007F1E
0FE001FE1E
07FFFFF81E
01FFFFF01E
00FFFF801E
001FFC0000
ENDCHAR
STARTCHAR 00E6
ENCODING 230
SWIDTH 940 0
DWIDTH 81 0
BBX 75 49 3 -1
BITMAP
0001FFC000003FF00000
000FFFF80001FFFE0000
003FFFFE0007FFFF8000
00FFFFFF000FFFFFE000
01FE001FC03F8007F000
03F00007E07E0001F800
07E00003E0FC0000FC00
0F800001F0F000003C00
0F000000F1E000003E00
1F0000007BE000001F00
1E0000007BC000000F00
3E0000003F8000000F80
3C0000003F8000000780
000000003F0000000780
000000003F00000003C0
000000001F00000003C0
000000001E00000003C0
000000001E00000001C0
000000001E00000001C0
000000001E00000001E0
000000001E00000001E0
000000001E00000001E0
0007FFFFFFFFFFFFFFE0
007FFFFFFFFFFFFFFFE0
03FFFFFFFFFFFFFFFFE0
07FFE0001FFFFFFFFFE0
0FE000001E0000000000
1F0000001E0000000000
3E0000001E0000000000
3C0000001E0000000000
780000003E0000000000
780000003E0000000000
780000003E0000000000
700000003F0000000000
F00000007F0000000000
F00000007F0000000100
F00000007F80000003C0
70000000F78000000380
78000001F3C000000780
78000001E3C000000F00
78000003E1E000001F00
3C000007C0F000003E00
3E00001F80F800007C00
1F00007F007E0001F800
0FE001FE003F8007F000
07FFFFFC000FFFFFE000
03FFFFF00007FFFF8000
00FFFFC00001FFFE0000
000FFC0000003FF00000
ENDCHAR
STARTCHAR 00E7
ENCODING 231
SWIDTH 534 0
DWIDTH 46 0
BBX 40 69 3 -21
BITMAP
00007FE000
0007FFFC00
001FFFFF00
007FFFFFC0
00FF000FE0
01F80003F0
03F00000F8
07C000007C
078000003E
0F8000001E
1F0000000F
1E0000000F
1E00000004
3C00000000
3C00000000
3C00000000
7800000000
7800000000
7800000000
7800000000
7800000000
7000000000
F000000000
F000000000
F000000000
F000000000
F000000000
7000000000
7800000000
7800000000
7800000000
7800000000
7800000000
3C00000000
3C00000000
3C00000000
1E00000004
1E0000000F
0F0000000F
0F8000001E
078000003E
07C000007C
03F00000F8
01F80003F0
00FF000FE0
007FFFFFC0
001FFFFF00
0007FFFC00
00007FE000
00000E0000
00001E0000
00001E0000
00001C0000
00003C0000
00003E0000
00007F0000
00003F8000
000007C000
000003C000
000001E000
000001E000
000001E000
000001E000
000003C000
000107C000
0001FF8000
0003FF0000
0003FE0000
0000100000
ENDCHAR
STARTCHAR 00E8
ENCODING 232
SWIDTH 569 0
DWIDTH 49 0
BBX 43 67 3 -1
BITMAP
000078000000
000078000000
000078000000
00003C000000
00003C000000
00001C000000
00001E000000
00001E000000
00000E000000
00000F000000
00000F000000
000007800000
000000000000
000000000000
000000000000
000000000000
000000000000
000000000000
00007FE00000
0007FFFC0000
001FFFFF0000
007FFFFFC000
00FF001FE000
01F80003F000
03F00000F800
07C000007C00
078000003E00
0F8000001E00
1F0000001F00
1E0000000F00
3E0000000F80
3C0000000780
3C0000000780
3C00000003C0
7800000003C0
7800000003C0
7800000003C0
7800000001C0
7800000001E0
7000000001E0
FFFFFFFFFFE0
FFFFFFFFFFE0
FFFFFFFFFFE0
FFFFFFFFFFE0
F00000000000
700000000000
780000000000
780000000000
780000000000
780000000000
780000000000
380000000000
3C0000000000
3C0000000300
3E00000003C0
1E0000000780
1F0000000F80
0F0000000F00
078000001E00
07C000007E00
03F00000FC00
01F80003F800
00FF000FF000
003FFFFFC000
001FFFFF0000
0007FFFC0000
00007FE00000
ENDCHAR
STARTCHAR 00E9
ENCODING 233
SWIDTH 569 0
DWIDTH 49 0
BBX 43 67 3 -1
BITMAP
000000700000
000000F00000
000000F00000
000000E00000
000001E00000
000001E00000
000001C00000
000003C00000
000003C00000
000007800000
000007800000
000007800000
000000000000
000000000000
000000000000
000000000000
000000000000
000000000000
00007FE00000
0007FFFC0000
001FFFFF0000
007FFFFFC000
00FF001FE000
01F80003F000
03F00000F800
07C000007C00
078000003E00
0F8000001E00
1F0000001F00
1E0000000F00
3E0000000F80
3C0000000780
3C0000000780
3C00000003C0
7800000003C0
7800000003C0
7800000003C0
7800000001C0
7800000001E0
7000000001E0
FFFFFFFFFFE0
FFFFFFFFFFE0
FFFFFFFFFFE0
FFFFFFFFFFE0
F00000000000
700000000000
780000000000
780000000000
780000000000
780000000000
780000000000
380000000000
3C0000000000
3C0000000300
3E00000003C0
1E0000000780
1F0000000F80
0F0000000F00
078000001E00
07C000007E00
03F00000FC00
01F80003F800
00FF000FF000
003FFFFFC000
001FFFFF0000
0007FFFC0000
00007FE00000
ENDCHAR
STARTCHAR 00EA
ENCODING 234
SWIDTH 569 0
DWIDTH 49 0
BBX 43 66 3 -1
BITMAP
00001F000000
00001F800000
00003FC00000
00007BE00000
0000F1E00000
0001F0F00000
0003E0780000
0003C07C0000
0007803E0000
000F001F0000
000000000000
000000000000
000000000000
000000000000
000000000000
000000000000
000000000000
00007FE00000
0007FFFC0000
001FFFFF0000
007FFFFFC000
00FF001FE000
01F80003F000
03F00000F800
07C000007C00
078000003E00
0F8000001E00
1F0000001F00
1E0000000F00
3E0000000F80
3C0000000780
3C0000000780
3C00000003C0
7800000003C0
7800000003C0
7800000003C0
7800000001C0
7800000001E0
7000000001E0
FFFFFFFFFFE0
FFFFFFFFFFE0
FFFFFFFFFFE0
FFFFFFFFFFE0
F00000000000
700000000000
780000000000
780000000000
780000000000
780000000000
780000000000
380000000000
3C0000000000
3C0000000300
3E00000003C0
1E0000000780
1F0000000F80
0F0000000F00
078000001E00
07C000007E00
03F00000FC00
01F80003F800
00FF000FF000
003FFFFFC000
001FFFFF0000
0007FFFC0000
00007FE00000
ENDCHAR
STARTCHAR 00EB
ENCODING 235
SWIDTH 569 0
DWIDTH 49 0
BBX 43 63 3 -1
BITMAP
001F801F0000
001F801F0000
001F801F0000
001F801F0000
001F801F0000
000000000000
000000000000
000000000000
000000000000
000000000000
000000000000
000000000000
000000000000
000000000000
00007FE00000
0007FFFC0000
001FFFFF0000
007FFFFFC000
00FF001FE000
01F80003F000
03F00000F800
07C000007C00
078000003E00
0F8000001E00
1F0000001F00
1E0000000F00
3E0000000F80
3C0000000780
3C0000000780
3C00000003C0
7800000003C0
7800000003C0
7800000003C0
7800000001C0
7800000001E0
7000000001E0
FFFFFFFFFFE0
FFFFFFFFFFE0
FFFFFFFFFFE0
FFFFFFFFFFE0
F00000000000
700000000000
780000000000
780000000000
780000000000
780000000000
780000000000
380000000000
3C0000000000
3C0000000300
3E00000003C0
1E0000000780
1F0000000F80
0F0000000F00
078000001E00
07C000007E00
03F00000FC00
01F80003F800
00FF000FF000
003FFFFFC000
001FFFFF0000
0007FFFC0000
00007FE00000
ENDCHAR
STARTCHAR 00EC
ENCODING 236
SWIDTH 197 0
DWIDTH 17 0
BBX 8 67 3 0
BITMAP
E0
F0
F0
70
78
78
3C
3C
3C
1E
1E
0E
00
00
00
00
00
00
00
00
0F
0F
0F
0F
0F
0F
0F
0F
0F
0F
0F
0F
0F
0F
0F
0F
0F
0F
0F
0F
0F
0F
0F
0F
0F
0F
0F
0F
0F
0F
0F
0F
0F
0F
0F
0F
0F
0F
0F
0F
0F
0F
0F
0F
0F
0F
0F
ENDCHAR
STARTCHAR 00ED
ENCODING 237
SWIDTH 197 0
DWIDTH 17 0
BBX 8 66 7 0
BITMAP
0F
1E
1E
1C
3C
3C
38
78
78
F0
F0
00
00
00
00
00
00
00
00
F0
F0
F0
F0
F0
F0
F0
F0
F0
F0
F0
F0
F0
F0
F0
F0
F0
F0
F0
F0
F0
F0
F0
F0
F0
F0
F0
F0
F0
F0
F0
F0
F0
F0
F0
F0
F0
F0
F0
F0
F0
F0
F0
F0
F0
F0
F0
ENDCHAR
STARTCHAR 00EE
ENCODING 238
SWIDTH 197 0
DWIDTH 17 0
BBX 20 65 -1 0
BITMAP
01F000
03F800
03FC00
07BE00
0F1E00
1F0F00
3E0780
7C03C0
7803E0
F001F0
000000
000000
000000
000000
000000
000000
000000
000000
00F000
00F000
00F000
00F000
00F000
00F000
00F000
00F000
00F000
00F000
00F000
00F000
00F000
00F000
00F000
00F000
00F000
00F000
00F000
00F000
00F000
00F000
00F000
00F000
00F000
00F000
00F000
00F000
00F000
00F000
00F000
00F000
00F000
00F000
00F000
00F000
00F000
00F000
00F000
00F000
00F000
00F000
00F000
00F000
00F000
00F000
00F000
ENDCHAR
STARTCHAR 00EF
ENCODING 239
SWIDTH 197 0
DWIDTH 17 0
BBX 21 62 -2 0
BITMAP
FC00F8
FC00F8
FC00F8
FC00F8
FC00F8
000000
000000
000000
000000
000000
000000
000000
000000
000000
000000
007800
007800
007800
007800
007800
007800
007800
007800
007800
007800
007800
007800
007800
007800
007800
007800
007800
007800
007800
007800
007800
007800
007800
007800
007800
007800
007800
007800
007800
007800
007800
007800
007800
007800
007800
007800
007800
007800
007800
007800
007800
007800
007800
007800
007800
007800
007800
ENDCHAR
STARTCHAR 00F0
ENCODING 240
SWIDTH 569 0
DWIDTH 49 0
BBX 43 68 3 -1
BITMAP
000000008000
00000001C000
00000003E000
00000007C000
000078078000
00007F8F0000
00007FFF0000
00007FFE0000
000003FE0000
0000007F0000
000000FFC000
000001F7E000
000003E3F000
000007C1F000
00000780F800
000007007C00
000003003C00
000000001E00
000000001E00
000000000F00
000000000F00
000000000780
00001F000780
0003FFF80780
001FFFFF03C0
003FFFFFC3C0
00FF803FE3C0
01FC0003F3C0
03F00001FBC0
07E000007DC0
078000003FC0
0F0000001FE0
1F0000000FE0
1E0000000FE0
3E00000007E0
3C00000007E0
3C00000003E0
7800000003E0
7800000003E0
7800000003E0
7800000001E0
7800000001E0
7000000001E0
F000000001E0
F000000001E0
F000000001E0
F000000001E0
F000000001E0
7000000001E0
7800000001E0
7800000001C0
7800000003C0
7800000003C0
3C00000003C0
3C0000000780
3C0000000780
1E0000000F80
1E0000000F00
0F0000001F00
0F8000003E00
07C000007C00
03E00000FC00
01F80003F800
00FE000FF000
007FFFFFC000
001FFFFF8000
0007FFFC0000
0000FFE00000
ENDCHAR
STARTCHAR 00F1
ENCODING 241
SWIDTH 569 0
DWIDTH 49 0
BBX 38 62 6 0
BITMAP
007F801C00
00FFE01C00
01FFF01C00
01E1FE3C00
01C07FFC00
01C01FF800
01C007F000
0000000000
0000000000
0000000000
0000000000
0000000000
0000000000
0000000000
0003FF0000
E01FFFE000
E07FFFF800
E0FFFFFE00
E1F8007F00
E3E0001F80
E7C00007C0
EF800003C0
FF000001E0
FE000001E0
FC000000F0
FC000000F0
F800000078
F800000078
F800000038
F000000038
F00000003C
F00000003C
F00000003C
F00000003C
F00000003C
F00000003C
F00000001C
F00000001C
F00000001C
F00000001C
F00000001C
F00000001C
F00000001C
F00000001C
F00000001C
F00000001C
F00000001C
F00000001C
F00000001C
F00000001C
F00000001C
F00000001C
F00000001C
F00000001C
F00000001C
F00000001C
F00000001C
F00000001C
F00000001C
F00000001C
F00000001C
F00000001C
ENDCHAR
STARTCHAR 00F2
ENCODING 242
SWIDTH 569 0
DWIDTH 49 0
BBX 43 67 3 -1
BITMAP
0000E0000000
0000F0000000
0000F0000000
000070000000
000078000000
000078000000
000038000000
00003C000000
00003C000000
00001E000000
00001E000000
00001E000000
000000000000
000000000000
000000000000
000000000000
000000000000
000000000000
00007FE00000
0007FFFC0000
001FFFFF0000
007FFFFFC000
00FF000FE000
01F80003F000
03F00000F800
07C000007C00
078000003E00
0F8000001E00
1F0000000F00
1E0000000F00
1E0000000780
3C0000000780
3C00000003C0
3C00000003C0
7800000003C0
7800000003C0
7800000001E0
7800000001E0
7000000001E0
7000000001E0
F000000001E0
F000000001E0
F000000001E0
F000000001E0
F000000001E0
7000000001E0
7800000001E0
7800000001E0
7800000001C0
7800000003C0
7800000003C0
3C00000003C0
3C00000003C0
3C0000000780
1E0000000780
1E0000000F00
1F0000000F00
0F8000001E00
078000003E00
07C000007C00
03F00000F800
01F80003F000
00FF000FE000
007FFFFFC000
001FFFFF0000
0007FFFC0000
00007FE00000
ENDCHAR
STARTCHAR 00F3
ENCODING 243
SWIDTH 569 0
DWIDTH 49 0
BBX 43 67 3 -1
BITMAP
000000E00000
000001E00000
000001E00000
000001C00000
000003C00000
000003C00000
000007800000
000007800000
000007800000
00000F000000
00000F000000
00000E000000
000000000000
000000000000
000000000000
000000000000
000000000000
000000000000
00007FE00000
0007FFFC0000
001FFFFF0000
007FFFFFC000
00FF000FE000
01F80003F000
03F00000F800
07C000007C00
078000003E00
0F8000001E00
1F0000000F00
1E0000000F00
1E0000000780
3C0000000780
3C00000003C0
3C00000003C0
7800000003C0
7800000003C0
7800000001E0
7800000001E0
7000000001E0
7000000001E0
F000000001E0
F000000001E0
F000000001E0
F000000001E0
F000000001E0
7000000001E0
7800000001E0
7800000001E0
7800000001C0
7800000003C0
7800000003C0
3C00000003C0
3C00000003C0
3C0000000780
1E0000000780
1E0000000F00
1F0000000F00
0F8000001E00
078000003E00
07C000007C00
03F00000F800
01F80003F000
00FF000FE000
007FFFFFC000
001FFFFF0000
0007FFFC0000
00007FE00000
ENDCHAR
STARTCHAR 00F4
ENCODING 244
SWIDTH 569 0
DWIDTH 49 0
BBX 43 66 3 -1
BITMAP
00001F000000
00001F800000
00003FC00000
00007BE00000
0000F1E00000
0001F0F00000
0003E0780000
0003C07C0000
0007803E0000
000F001F0000
000000000000
000000000000
000000000000
000000000000
000000000000
000000000000
000000000000
00007FE00000
0007FFFC0000
001FFFFF0000
007FFFFFC000
00FF000FE000
01F80003F000
03F00000F800
07C000007C00
078000003E00
0F8000001E00
1F0000000F00
1E0000000F00
1E0000000780
3C0000000780
3C00000003C0
3C00000003C0
7800000003C0
7800000003C0
7800000001E0
7800000001E0
7000000001E0
7000000001E0
F000000001E0
F000000001E0
F000000001E0
F000000001E0
F000000001E0
7000000001E0
7800000001E0
7800000001E0
7800000001C0
7800000003C0
7800000003C0
3C00000003C0
3C00000003C0
3C0000000780
1E0000000780
1E0000000F00
1F0000000F00
0F8000001E00
078000003E00
07C000007C00
03F00000F800
01F80003F000
00FF000FE000
007FFFFFC000
001FFFFF0000
0007FFFC0000
00007FE00000
ENDCHAR
STARTCHAR 00F5
ENCODING 245
SWIDTH 569 0
DWIDTH 49 0
BBX 43 63 3 -1
BITMAP
0007E0038000
000FF803C000
001FFE03C000
003EFFC38000
00381FFF8000
003807FF0000
003800FE0000
000000000000
000000000000
000000000000
000000000000
000000000000
000000000000
000000000000
00007FE00000
0007FFFC0000
001FFFFF0000
007FFFFFC000
00FF000FE000
01F80003F000
03F00000F800
07C000007C00
078000003E00
0F8000001E00
1F0000000F00
1E0000000F00
1E0000000780
3C0000000780
3C00000003C0
3C00000003C0
7800000003C0
7800000003C0
7800000001E0
7800000001E0
7000000001E0
7000000001E0
F000000001E0
F000000001E0
F000000001E0
F000000001E0
F000000001E0
7000000001E0
7800000001E0
7800000001E0
7800000001C0
7800000003C0
7800000003C0
3C00000003C0
3C00000003C0
3C0000000780
1E0000000780
1E0000000F00
1F0000000F00
0F8000001E00
078000003E00
07C000007C00
03F00000F800
01F80003F000
00FF000FE000
007FFFFFC000
001FFFFF0000
0007FFFC0000
00007FE00000
ENDCHAR
STARTCHAR 00F6
ENCODING 246
SWIDTH 569 0
DWIDTH 49 0
BBX 43 63 3 -1
BITMAP
001F801F0000
001F801F0000
001F801F0000
001F801F0000
001F801F0000
000000000000
000000000000
000000000000
000000000000
000000000000
000000000000
000000000000
000000000000
000000000000
00007FE00000
0007FFFC0000
001FFFFF0000
007FFFFFC000
00FF000FE000
01F80003F000
03F00000F800
07C000007C00
078000003E00
0F8000001E00
1F0000000F00
1E0000000F00
1E0000000780
3C0000000780
3C00000003C0
3C00000003C0
7800000003C0
7800000003C0
7800000001E0
7800000001E0
7000000001E0
7000000001E0
F000000001E0
F000000001E0
F000000001E0
F000000001E0
F000000001E0
7000000001E0
7800000001E0
7800000001E0
7800000001C0
7800000003C0
7800000003C0
3C00000003C0
3C00000003C0
3C0000000780
1E0000000780
1E0000000F00
1F0000000F00
0F8000001E00
078000003E00
07C000007C00
03F00000F800
01F80003F000
00FF000FE000
007FFFFFC000
001FFFFF0000
0007FFFC0000
00007FE00000
ENDCHAR
STARTCHAR 00F7
ENCODING 247
SWIDTH 545 0
DWIDTH 47 0
BBX 36 26 5 18
BITMAP
0000F80000
0000F80000
0000F80000
0000F80000
0000F80000
0000000000
0000000000
0000000000
0000000000
0000000000
0000000000
FFFFFFFFF0
FFFFFFFFF0
FFFFFFFFF0
FFFFFFFFF0
0000000000
0000000000
0000000000
0000000000
0000000000
0000000000
0000F80000
0000F80000
0000F80000
0000F80000
0000F80000
ENDCHAR
STARTCHAR 00F8
ENCODING 248
SWIDTH 569 0
DWIDTH 49 0
BBX 47 49 1 -1
BITMAP
00001FF80000
0001FFFF0008
0007FFFFC01C
000FFFFFF03E
003FC003F87C
007E0000FEF8
00FC00003FF0
01F000001FE0
01E000000FC0
03E000000FC0
07C000001FC0
078000003FE0
078000007DE0
0F000000F9E0
0F000001F0F0
0F000003E0F0
1E000007C0F0
1E00000F80F0
1E00001F0078
1E00003E0078
1E00007C0078
1C0000F80078
3C0001F00078
3C0003E00078
3C0007C00078
3C000F800078
3C001F000078
1C003E000078
1E007C000078
1E00F8000078
1E01F0000070
1E03E00000F0
1E07C00000F0
1F0F800000F0
0F1F000000F0
0F3E000001E0
0FFC000001E0
07F8000003C0
07F0000003C0
03E000000780
07E000000F80
0FF000001F00
1FFC00003E00
3E7E0000FC00
7C3FC003F800
F81FFFFFF000
7007FFFFC000
2001FFFF0000
00003FF80000
ENDCHAR
STARTCHAR 00F9
ENCODING 249
SWIDTH 569 0
DWIDTH 49 0
BBX 38 68 5 -1
BITMAP
0003C00000
0001E00000
0001E00000
0000E00000
0000F00000
0000F00000
0000700000
0000780000
0000780000
0000380000
00003C0000
00003C0000
0000000000
0000000000
0000000000
0000000000
0000000000
0000000000
0000000000
0000000000
F00000001C
F00000001C
F00000001C
F00000001C
F00000001C
F00000001C
F00000001C
F00000001C
F00000001C
F00000001C
F00000001C
F00000001C
F00000001C
F00000001C
F00000001C
F00000001C
F00000001C
F00000001C
F00000001C
F00000001C
F00000001C
F00000001C
F00000001C
F00000001C
F00000001C
F00000001C
F00000001C
F00000001C
F00000001C
F00000003C
F00000003C
700000003C
780000003C
780000003C
780000007C
380000007C
3C000000FC
3C000000FC
1E000001FC
1F000001FC
0F000003DC
07C00007DC
03E0001F9C
01F8007F1C
00FFFFFE1C
007FFFF81C
001FFFE01C
0003FF0000
ENDCHAR
STARTCHAR 00FA
ENCODING 250
SWIDTH 569 0
DWIDTH 49 0
BBX 38 67 5 -1
BITMAP
0000078000
0000070000
00000F0000
00000F0000
00000E0000
00001E0000
00001E0000
00001C0000
00003C0000
00003C0000
0000780000
0000000000
0000000000
0000000000
0000000000
0000000000
0000000000
0000000000
0000000000
F00000001C
F00000001C
F00000001C
F00000001C
F00000001C
F00000001C
F00000001C
F00000001C
F00000001C
F00000001C
F00000001C
F00000001C
F00000001C
F00000001C
F00000001C
F00000001C
F00000001C
F00000001C
F00000001C
F00000001C
F00000001C
F00000001C
F00000001C
F00000001C
F00000001C
F00000001C
F00000001C
F00000001C
F00000001C
F00000003C
F00000003C
700000003C
780000003C
780000003C
780000007C
380000007C
3C000000FC
3C000000FC
1E000001FC
1F000001FC
0F000003DC
07C00007DC
03E0001F9C
01F8007F1C
00FFFFFE1C
007FFFF81C
001FFFE01C
0003FF0000
ENDCHAR
STARTCHAR 00FB
ENCODING 251
SWIDTH 569 0
DWIDTH 49 0
BBX 38 66 5 -1
BITMAP
00007C0000
0000FC0000
0001FE0000
0003EF0000
0007CF8000
000787C000
000F03E000
001E01E000
003C00F000
007C007800
0000000000
0000000000
0000000000
0000000000
0000000000
0000000000
0000000000
0000000000
F00000001C
F00000001C
F00000001C
F00000001C
F00000001C
F00000001C
F00000001C
F00000001C
F00000001C
F00000001C
F00000001C
F00000001C
F00000001C
F00000001C
F00000001C
F00000001C
F00000001C
F00000001C
F00000001C
F00000001C
F00000001C
F00000001C
F00000001C
F00000001C
F00000001C
F00000001C
F00000001C
F00000001C
F00000001C
F00000003C
F00000003C
700000003C
780000003C
780000003C
780000007C
380000007C
3C000000FC
3C000000FC
1E000001FC
1F000001FC
0F000003DC
07C00007DC
03E0001F9C
01F8007F1C
00FFFFFE1C
007FFFF81C
001FFFE01C
0003FF0000
ENDCHAR
STARTCHAR 00FC
ENCODING 252
SWIDTH 569 0
DWIDTH 49 0
BBX 38 63 5 -1
BITMAP
007C00FC00
007C00FC00
007C00FC00
007C00FC00
007C00FC00
0000000000
0000000000
0000000000
0000000000
0000000000
0000000000
0000000000
0000000000
0000000000
0000000000
F00000001C
F00000001C
F00000001C
F00000001C
F00000001C
F00000001C
F00000001C
F00000001C
F00000001C
F00000001C
F00000001C
F00000001C
F00000001C
F00000001C
F00000001C
F00000001C
F00000001C
F00000001C
F00000001C
F00000001C
F00000001C
F00000001C
F00000001C
F00000001C
F00000001C
F00000001C
F00000001C
F00000001C
F00000001C
F00000003C
F00000003C
700000003C
780000003C
780000003C
780000007C
380000007C
3C000000FC
3C000000FC
1E000001FC
1F000001FC
0F000003DC
07C00007DC
03E0001F9C
01F8007F1C
00FFFFFE1C
007FFFF81C
001FFFE01C
0003FF0000
ENDCHAR
STARTCHAR 00FD
ENCODING 253
SWIDTH 510 0
DWIDTH 44 0
BBX 39 86 2 -20
BITMAP
0000078000
0000078000
0000070000
00000F0000
00000F0000
00000E0000
00001E0000
00001E0000
00003C0000
00003C0000
00003C0000
0000000000
0000000000
0000000000
0000000000
0000000000
0000000000
0000000000
0000000000
F00000001E
F00000001E
780000001E
780000003C
3C0000003C
3C00000038
3C00000078
1E00000078
1E000000F0
0F000000F0
0F000000F0
0F000001E0
07800001E0
07800001E0
03C00003C0
03C00003C0
03C0000380
01E0000780
01E0000780
00F0000F00
00F0000F00
00F0000F00
0078001E00
0078001E00
003C001E00
003C003C00
003C003C00
001E003800
001E007800
000F007800
000F00F000
000700F000
000780F000
000781E000
0003C1E000
0003C1E000
0001C3C000
0001E3C000
0001E38000
0000F78000
0000F78000
00007F0000
00007F0000
00007F0000
00003E0000
00003E0000
00001E0000
00003C0000
00003C0000
0000380000
0000780000
0000780000
0000F00000
0000F00000
0000F00000
0001E00000
0001E00000
0001E00000
0003C00000
0003C00000
0007800000
0007800000
0007800000
000F000000
000F000000
000F000000
001E000000
ENDCHAR
STARTCHAR 00FE
ENCODING 254
SWIDTH 580 0
DWIDTH 50 0
BBX 40 82 6 -20
BITMAP
F000000000
F000000000
F000000000
F000000000
F000000000
F000000000
F000000000
F000000000
F000000000
F000000000
F000000000
F000000000
F000000000
F000000000
F000FF8000
F007FFF000
F01FFFFC00
F07FFFFF00
F0FC007F80
F1F0000FC0
F3E00007E0
F7800003E0
F7000001F0
FF000000F8
FE00000078
FC0000007C
FC0000003C
F80000003C
F80000001E
F80000001E
F00000001E
F00000000F
F00000000F
F00000000F
F00000000F
E00000000F
E00000000F
E00000000F
E00000000F
E00000000F
E00000000F
E00000000F
F00000000F
F00000000F
F00000000F
F00000000E
F00000001E
F80000001E
F80000001E
F80000003C
FC0000003C
FC0000007C
FE00000078
FF000000F8
F7000001F0
F7800003E0
F3E00007E0
F1F0001FC0
F0FC007F80
F07FFFFE00
F01FFFFC00
F007FFF000
F000FF8000
F000000000
F000000000
F000000000
F000000000
F000000000
F000000000
F000000000
F000000000
F000000000
F000000000
F000000000
F000000000
F000000000
F000000000
F000000000
F000000000
F000000000
F000000000
F000000000
ENDCHAR
STARTCHAR 00FF
ENCODING 255
SWIDTH 510 0
DWIDTH 44 0
BBX 39 82 2 -20
BITMAP
003E007C00
003E007C00
003E007C00
003E007C00
003E007C00
0000000000
0000000000
0000000000
0000000000
0000000000
0000000000
0000000000
0000000000
0000000000
0000000000
F00000001E
F00000001E
780000001E
780000003C
3C0000003C
3C00000038
3C00000078
1E00000078
1E000000F0
0F000000F0
0F000000F0
0F000001E0
07800001E0
07800001E0
03C00003C0
03C00003C0
03C0000380
01E0000780
01E0000780
00F0000F00
00F0000F00
00F0000F00
0078001E00
0078001E00
003C001E00
003C003C00
003C003C00
001E003800
001E007800
000F007800
000F00F000
000700F000
000780F000
000781E000
0003C1E000
0003C1E000
0001C3C000
0001E3C000
0001E38000
0000F78000
0000F78000
00007F0000
00007F0000
00007F0000
00003E0000
00003E0000
00001E0000
00003C0000
00003C0000
0000380000
0000780000
0000780000
0000F00000
0000F00000
0000F00000
0001E00000
0001E00000
0001E00000
0003C00000
0003C00000
0007800000
0007800000
0007800000
000F000000
000F000000
000F000000
001E000000
ENDCHAR
ENDFONT
